<?xml version="1.0" encoding="UTF-8"?>
<svg width="60px" height="23px" viewBox="0 0 60 23" version="1.1" xmlns="http://www.w3.org/2000/svg" xmlns:xlink="http://www.w3.org/1999/xlink">
    <title>RTC</title>
    <g id="Page-1" stroke="none" stroke-width="1" fill="none" fill-rule="evenodd">
        <g id="Logo" transform="translate(0.740000, 0.670000)" fill-rule="nonzero">
            <g id="RTC">
                <path d="M5.16,21.33 L5.16,13.68 L9.09,13.68 L13.05,21.33 L18.81,21.33 L14.22,12.93 C15.4,12.39 16.35,11.6 17.07,10.56 C17.79,9.52 18.15,8.34 18.15,7.02 C18.15,6.04 17.965,5.14 17.595,4.32 C17.225,3.5 16.715,2.795 16.065,2.205 C15.415,1.615 14.635,1.155 13.725,0.825 C12.815,0.495 11.82,0.33 10.74,0.33 L10.74,0.33 L0,0.33 L0,21.33 L5.16,21.33 Z M10.26,9.48 L5.16,9.48 L5.16,4.74 L10.26,4.74 C11.06,4.74 11.705,4.96 12.195,5.4 C12.685,5.84 12.93,6.41 12.93,7.11 C12.93,7.81 12.685,8.38 12.195,8.82 C11.705,9.26 11.06,9.48 10.26,9.48 L10.26,9.48 Z M31.62,21.33 L31.62,4.89 L38.49,4.89 L38.49,0.33 L19.59,0.33 L19.59,4.89 L26.46,4.89 L26.46,21.33 L31.62,21.33 Z" id="RT" fill="#000000"></path>
                <path d="M50.1,21.63 C51.78,21.63 53.415,21.26 55.005,20.52 C56.595,19.78 57.88,18.8 58.86,17.58 L58.86,17.58 L55.47,14.25 C54.77,15.11 53.985,15.76 53.115,16.2 C52.245,16.64 51.3,16.86 50.28,16.86 C49.4,16.86 48.585,16.705 47.835,16.395 C47.085,16.085 46.435,15.66 45.885,15.12 C45.335,14.58 44.905,13.945 44.595,13.215 C44.285,12.485 44.13,11.69 44.13,10.83 C44.13,9.97 44.285,9.165 44.595,8.415 C44.905,7.665 45.325,7.02 45.855,6.48 C46.385,5.94 47.015,5.515 47.745,5.205 C48.475,4.895 49.26,4.74 50.1,4.74 C51.16,4.74 52.145,4.975 53.055,5.445 C53.965,5.915 54.79,6.61 55.53,7.53 L55.53,7.53 L59.01,4.11 C58.53,3.49 57.96,2.925 57.3,2.415 C56.64,1.905 55.92,1.475 55.14,1.125 C54.36,0.775 53.54,0.5 52.68,0.3 C51.82,0.1 50.96,0 50.1,0 C48.52,0 47.04,0.28 45.66,0.84 C44.28,1.4 43.085,2.16 42.075,3.12 C41.065,4.08 40.27,5.225 39.69,6.555 C39.11,7.885 38.82,9.31 38.82,10.83 C38.82,12.35 39.11,13.77 39.69,15.09 C40.27,16.41 41.06,17.55 42.06,18.51 C43.06,19.47 44.255,20.23 45.645,20.79 C47.035,21.35 48.52,21.63 50.1,21.63 Z" id="C" fill="#30BEFF"></path>
            </g>
        </g>
    </g>
</svg>