<?xml version="1.0" encoding="UTF-8"?>
<svg width="194px" height="33px" viewBox="0 0 194 33" version="1.1" xmlns="http://www.w3.org/2000/svg" xmlns:xlink="http://www.w3.org/1999/xlink">
    <title>bluehost</title>
    <g id="Page-1" stroke="none" stroke-width="1" fill="none" fill-rule="evenodd">
        <g id="Desktop-HD" transform="translate(-478.000000, -1832.000000)" fill="#000000" fill-rule="nonzero">
            <g id="Brands" transform="translate(0.000000, 1645.000000)">
                <g id="Group-6" transform="translate(478.000000, 60.000000)">
                    <g id="Group-4" transform="translate(0.000000, 120.000000)">
                        <g id="bluehost" transform="translate(0.000000, 7.331378)">
                            <path d="M106.193211,11.1751152 C111.634256,11.3133641 115.353452,15.6912442 114.641754,22.1198156 L98.3874924,22.1198156 C98.3645345,25.8986175 101.027662,29.9078341 106.353917,30.0921659 C108.718591,30.1843317 110.922559,29.4700461 112.690324,28.5253457 L113.470896,30.4147465 C111.70313,31.3824885 109.177751,32.2811059 106.239127,32.1658986 C99.4435603,31.9585253 95.9539449,26.5898618 96.1835248,20.875576 C96.4131047,14.4700461 101.142452,10.9907834 106.193211,11.1751152 Z M8.87879174,23.1894075 L8.87879174,32.1421892 L-8.8817842e-15,32.1421892 L-8.8817842e-15,23.1894075 L8.87879174,23.1894075 Z M20.3308103,23.1894075 L20.3308103,32.1421892 L11.4520186,32.1421892 L11.4520186,23.1894075 L20.3308103,23.1894075 Z M31.8060111,23.1894075 L31.8060111,32.1421892 L22.9272194,32.1421892 L22.9272194,23.1894075 L31.8060111,23.1894075 Z M48.8441361,0.0230414748 L48.8441361,13.6866359 C50.5200699,12.1889401 52.8617855,11.1059908 55.5478711,11.1059908 C60.0476384,11.1059908 64.3866997,14.1705069 64.3866997,21.5668203 C64.3866997,29.2165898 59.5196045,32.1198156 54.2851813,32.1198156 C51.3465577,32.1198156 48.6145562,31.1981567 46.5942525,30.0230415 L46.5942525,0.0230414748 L48.8441361,0.0230414748 Z M149.262412,11.1290323 C154.473878,11.1290323 159.019561,15.0000001 159.019561,21.5898618 C159.019561,28.3179724 154.473878,32.0967743 149.262412,32.0967743 C143.431081,32.0967743 139.505264,27.3963134 139.505264,21.5898618 C139.505264,15.4147465 143.844325,11.1290323 149.262412,11.1290323 Z M77.9778336,11.4285714 L77.9778336,23.8248848 C77.9778336,28.6635945 80.3425072,29.9769586 82.7071808,29.9769586 C85.3703085,29.9769586 87.803856,28.3179724 89.6864117,25.5299539 L89.6864117,11.4285714 L91.9362955,11.4285714 L91.9362955,31.7741936 L89.6864117,31.7741936 L89.6864117,27.8341014 C87.918646,30.3456221 85.0718545,32.0737328 81.995483,32.0737328 C78.7813635,32.0737328 75.72795,30.2534562 75.72795,24.0552995 L75.72795,11.4285714 L77.9778336,11.4285714 Z M184.594769,4.60829493 L184.594769,11.4516129 L191.298504,11.4516129 L191.298504,13.3640553 L184.594769,13.3640553 L184.594769,24.4700461 C184.594769,27.7419355 185.972249,29.8847926 188.93383,29.9769586 C190.19652,30.0460829 191.551042,29.7465438 192.744858,29.1935485 L193.387682,31.1751152 C192.03316,31.6820276 190.494974,32.0967743 188.887914,32.0737328 C185.237593,32.0737328 182.344885,29.8387097 182.344885,24.6082949 L182.344885,13.3410138 L178.717522,13.3410138 L178.717522,11.4285714 L182.344885,11.4285714 L182.344885,4.60829493 L184.594769,4.60829493 Z M169.809819,11.1751152 C171.898997,11.1751152 173.804511,11.797235 175.434528,12.6497696 L174.585083,14.4239631 C173.299435,13.7557604 171.692375,13.2258065 169.878693,13.2258065 C166.526826,13.2258065 165.011598,14.8617511 165.011598,16.5898618 C165.011598,18.7788018 167.491062,19.5852534 170.613349,20.875576 C175.480444,22.8110599 176.536512,25.0000001 176.536512,26.8202765 C176.536512,30.0230414 173.574931,32.0276498 169.626155,32.0276498 C167.39923,32.0276498 165.21822,31.3824885 163.197916,30.1843317 L164.162152,28.2488479 C165.838086,29.4009216 167.7436,29.9769586 169.557281,29.9769586 C171.669417,29.9769586 174.309587,29.1013825 174.286629,26.9585253 C174.286629,25.1382489 172.335199,23.7096775 169.235869,22.4884792 C165.79217,21.1059908 162.784672,19.8387097 162.784672,16.5898618 C162.784672,13.3410138 165.815128,11.1751152 169.809819,11.1751152 Z M70.4935267,1.35221909e-13 L70.4935267,31.7741936 L68.3354751,31.7741936 L68.3354751,1.35221909e-13 L70.4935267,1.35221909e-13 Z M121.965355,0.0230414748 L121.965355,15.4147465 C123.641289,12.8801843 126.327374,11.1290323 129.403746,11.1290323 C133.467311,11.1290323 135.854943,14.1935484 135.831985,18.7327188 L135.831985,31.7741936 L133.605059,31.7741936 L133.605059,19.2165898 C133.605059,14.8156682 131.355175,13.2488479 128.921628,13.2258065 C125.983004,13.202765 123.342835,15.5069124 121.965355,17.8110599 L121.965355,31.7741936 L119.715471,31.7741936 L119.715471,0.0230414748 L121.965355,0.0230414748 Z M55.3412491,13.1797235 C52.7699535,13.1797235 50.4282379,14.5852535 48.8441361,16.3364055 L48.8441361,28.7788018 C50.7037338,29.7235023 52.5174155,30.1152074 54.1474333,30.1152074 C58.2798727,30.1152074 62.136816,27.6728111 62.136816,21.6129033 C62.1138581,16.2442397 59.1522765,13.1797235 55.3412491,13.1797235 Z M149.262412,13.202765 C144.418275,13.202765 141.778106,17.0506913 141.778106,21.5668203 C141.778106,26.0599078 144.395317,29.9769586 149.262412,29.9769586 C153.968802,29.9769586 156.769677,26.0599078 156.769677,21.5668203 C156.769677,17.0506913 153.99176,13.202765 149.262412,13.202765 Z M8.87879174,11.5952047 L8.87879174,20.5479864 L-8.8817842e-15,20.5479864 L-8.8817842e-15,11.5952047 L8.87879174,11.5952047 Z M20.3308103,11.5952047 L20.3308103,20.5479864 L11.4520186,20.5479864 L11.4520186,11.5952047 L20.3308103,11.5952047 Z M31.8060111,11.5952047 L31.8060111,20.5479864 L22.9272194,20.5479864 L22.9272194,11.5952047 L31.8060111,11.5952047 Z M98.4793243,20.2534562 L112.552576,20.2534562 C112.644408,16.7050691 110.187903,13.3410138 106.009547,13.202765 C101.945982,13.0645161 98.7548204,16.1059908 98.4793243,20.2534562 Z M8.87879174,0.00100180337 L8.87879174,8.95378348 L-8.8817842e-15,8.95378348 L-8.8817842e-15,0.00100180337 L8.87879174,0.00100180337 Z M20.3308103,0.00100180337 L20.3308103,8.95378348 L11.4520186,8.95378348 L11.4520186,0.00100180337 L20.3308103,0.00100180337 Z M31.8060111,0.00100180337 L31.8060111,8.95378348 L22.9272194,8.95378348 L22.9272194,0.00100180337 L31.8060111,0.00100180337 Z" id="blueost"></path>
                        </g>
                    </g>
                </g>
            </g>
        </g>
    </g>
</svg>