<?xml version="1.0" encoding="UTF-8"?>
<svg width="191px" height="30px" viewBox="0 0 191 30" version="1.1" xmlns="http://www.w3.org/2000/svg" xmlns:xlink="http://www.w3.org/1999/xlink">
    <title>hostgator</title>
    <g id="Page-1" stroke="none" stroke-width="1" fill="none" fill-rule="evenodd">
        <g id="Desktop-HD" transform="translate(-1287.000000, -1833.000000)" fill="#000000" fill-rule="nonzero">
            <g id="Brands" transform="translate(0.000000, 1645.000000)">
                <g id="Group-6" transform="translate(478.000000, 60.000000)">
                    <g id="Group-4" transform="translate(0.000000, 120.000000)">
                        <g id="hostgator" transform="translate(809.384164, 8.797654)">
                            <path d="M99.9745082,-1.0125234e-13 C106.004893,-1.0125234e-13 111.279161,2.8250035 113.176413,8.11782616 L106.756372,9.97332928 C105.179195,6.90247162 102.58149,6.09532776 99.9745082,6.09532776 C95.5723271,6.09532776 92.2231439,9.56975735 92.2231439,14.1296563 C92.2231439,18.6895552 95.651186,22.2057336 100.173975,22.2057336 C103.727263,22.2057336 106.311051,20.3502305 107.322301,17.3628705 L99.0421179,17.3628705 L99.0421179,11.7082247 L113.941808,11.7082247 C114.047027,12.5251165 114.101251,13.34777 114.104165,14.1714051 C114.104165,22.3680901 108.250052,28.2639513 100.095116,28.2639513 C91.9401797,28.2639513 85.5201389,22.0712096 85.5201389,14.1296563 C85.5201389,6.18810291 91.8566821,-1.0125234e-13 99.9745082,-1.0125234e-13 Z M58.2117717,6.65661745 C63.2355464,6.65661745 66.5615358,8.94816381 67.3733184,12.4457872 L61.5052898,13.6101154 C61.3058232,12.3622896 60.1136624,11.2397102 58.1282741,11.2397102 C56.4026562,11.2397102 55.5352085,11.9633564 55.3774907,12.8076103 C55.2707993,13.3596225 55.5352085,13.8188595 57.3675178,14.1992376 C58.550401,14.4543693 62.1083283,15.1640993 62.1083283,15.1640993 C65.9260259,15.9666044 67.6748376,18.2581507 67.6748376,21.2315945 C67.6748376,25.6940795 63.8153911,28.0273747 58.5086522,28.0273747 C53.7678417,28.0273747 49.6950124,26.297118 49.0223925,22.159346 L55.3171868,20.8836876 C55.5955123,22.6139443 57.17269,23.2587316 58.8936691,23.2587316 C60.6146483,23.2587316 61.9320555,22.5304467 61.9691655,21.6490827 C62.0294694,20.3131204 60.9811101,19.5198928 59.4967076,19.2322899 C58.4715421,19.037462 55.3960457,18.4297848 55.3960457,18.4297848 C51.6572069,17.7478874 49.5280171,16.6670568 49.5280171,13.4895077 C49.5280171,9.35173574 53.1044994,6.65661745 58.2117717,6.65661745 Z M125.2511,6.31334937 C130.947494,6.32262689 134.537893,9.18937921 134.537893,14.3569554 L134.537893,27.197037 L128.321957,27.197037 L128.321957,25.703357 C126.630602,27.1266102 124.473128,27.8749529 122.26374,27.8047143 C117.745589,27.8047143 114.716481,25.1791774 114.716481,21.1805681 C114.716481,17.1819589 117.745589,14.6491972 123.140465,14.6491972 L128.308041,14.6491972 L128.308041,14.2456252 C128.35019,13.4785016 128.063509,12.7297547 127.51981,12.1869411 C126.976111,11.6441276 126.226898,11.3586674 125.459844,11.4020667 C123.520843,11.4020667 122.388986,12.1674617 122.068912,13.944106 L115.973584,12.6916414 C116.859587,8.77652977 120.412875,6.31334937 125.2511,6.31334937 Z M78.5759185,0.143801492 L78.5759185,6.93030416 L84.5506385,6.93030416 L84.5506385,12.0329377 L78.6083898,12.0329377 L78.6083898,19.0838496 C78.6083898,21.1805681 79.6150002,22.0294608 81.3127856,22.0294608 C82.3440974,21.9933612 83.352738,21.7169778 84.2583968,21.222317 L85.728883,26.3110343 C84.0494997,27.2872977 82.1420115,27.8025756 80.1994837,27.8047143 C75.1525152,27.8047143 72.1141289,25.0585697 72.1141289,19.7518307 L72.1141289,12.0561315 L68.4495102,12.0561315 L68.4495102,6.95349795 L72.1141289,6.95349795 L72.1141289,1.53542883 L78.5759185,0.143801492 Z M145.647718,0.143801492 L145.647718,6.93030416 L151.622438,6.93030416 L151.622438,12.0329377 L145.63844,12.0329377 L145.63844,19.0838496 C145.63844,21.1805681 146.649689,22.0294608 148.342836,22.0294608 C149.375701,21.9939085 150.385972,21.7175136 151.293086,21.222317 L152.786766,26.3110343 C151.108403,27.2856936 149.202842,27.8008829 147.262005,27.8047143 C142.215037,27.8047143 139.190567,25.0585697 139.190567,19.728637 L139.190567,12.0561315 L135.516671,12.0561315 L135.516671,6.95349795 L139.190567,6.95349795 L139.190567,1.53542883 L145.647718,0.143801492 Z M37.5461057,6.39220826 C43.5625746,6.40612453 48.6512919,10.6830592 48.6512919,17.0613512 C48.6512919,23.481392 43.5486583,27.7629655 37.5461057,27.7629655 C31.4090291,27.7629655 26.3203118,23.481392 26.3203118,17.0613512 C26.3203118,10.6413104 31.4229454,6.39220826 37.5461057,6.39220826 Z M163.001311,6.39220826 C169.017779,6.40612453 174.101858,10.6830592 174.101858,17.0613512 C174.101858,23.481392 168.999224,27.7629655 163.001311,27.7629655 C156.864234,27.7629655 151.775517,23.481392 151.775517,17.0613512 C151.775517,10.6413104 156.87815,6.39220826 163.001311,6.39220826 Z M6.66125621,0.143801492 L6.66125621,10.6830592 L18.0494066,10.6830592 L18.0494066,0.143801492 L24.668914,0.143801492 L24.668914,27.197037 L18.0494066,27.197037 L18.0494066,16.5047003 L6.66125621,16.5047003 L6.66125621,27.197037 L-2.84217094e-14,27.197037 L-2.84217094e-14,0.143801492 L6.66125621,0.143801492 Z M189.159266,6.62878491 C189.650764,6.62245157 190.140821,6.68331861 190.615836,6.80969646 L190.332872,13.2575698 L189.159266,13.2575698 C184.641116,13.2575698 182.177935,15.5769487 182.177935,20.8512163 L182.177935,27.197037 L175.716146,27.197037 L175.716146,8.3219315 L182.177935,6.93030416 L182.177935,10.8036669 C183.629867,8.38223536 185.851832,6.62878491 189.159266,6.62878491 Z M128.321957,18.7405815 L123.878027,18.7405815 C122.26374,18.7405815 121.257129,19.5894742 121.257129,20.8419388 C121.257129,22.0944034 122.384347,22.9386574 124.082133,22.9386574 C126.304098,22.9572124 128.321957,21.4635324 128.321957,19.2044573 L128.321957,18.7405815 Z M37.5414669,11.8149161 C36.1769545,11.8302556 34.8764596,12.3959765 33.9349646,13.3837602 C32.9934696,14.3715439 32.4907687,15.6976732 32.540886,17.0613512 C32.540886,20.2528166 34.9205688,22.312425 37.5461057,22.312425 C40.0510349,22.312425 42.4260789,20.2528166 42.4260789,17.0613512 C42.4260789,13.9116347 40.0463961,11.8149161 37.5414669,11.8149161 Z M163.001311,11.8149161 C161.63518,11.82777 160.332277,12.3924027 159.388768,13.380466 C158.445259,14.3685294 157.941302,15.6960809 157.991452,17.0613512 C157.991452,20.2528166 160.375774,22.312425 163.001311,22.312425 C165.501601,22.312425 167.885923,20.2528166 167.885923,17.0613512 C167.885923,13.9116347 165.501601,11.8149161 163.001311,11.8149161 Z" id="Combined-Shape"></path>
                        </g>
                    </g>
                </g>
            </g>
        </g>
    </g>
</svg>