<?xml version="1.0" encoding="UTF-8"?>
<svg width="135px" height="38px" viewBox="0 0 135 38" version="1.1" xmlns="http://www.w3.org/2000/svg" xmlns:xlink="http://www.w3.org/1999/xlink">
    <title>ipage</title>
    <g id="Page-1" stroke="none" stroke-width="1" fill="none" fill-rule="evenodd">
        <g id="Desktop-HD" transform="translate(-1189.000000, -1930.000000)" fill="#000000" fill-rule="nonzero">
            <g id="Brands" transform="translate(0.000000, 1645.000000)">
                <g id="Group-6" transform="translate(478.000000, 60.000000)">
                    <g id="Group-4" transform="translate(0.000000, 120.000000)">
                        <g id="Group-3" transform="translate(153.958944, 105.571848)">
                            <g id="ipage" transform="translate(557.184751, 0.000000)">
                                <g id="Group" transform="translate(34.295337, 0.000000)">
                                    <path d="M0.583169626,4.48611927 C0.194389875,4.18281592 -4.50172837e-15,3.6451418 -4.50172837e-15,2.8730969 L-4.50172837e-15,2.07899358 C-4.50172837e-15,1.30557003 0.210933695,0.767895909 0.624529174,0.461835254 C1.22627688,0.112474844 1.92035562,-0.0448111916 2.61392343,0.0110161811 C3.58173685,0.0110161811 4.26830535,0.164046509 4.64467724,0.465971209 C5.02104912,0.767895909 5.22371091,1.29316217 5.22371091,2.08312953 L5.22371091,2.8730969 C5.22371091,3.67133618 5.02518508,4.21728221 4.62399746,4.50679904 C4.22280985,4.79631588 3.54037731,4.94521025 2.55602006,4.94521025 C1.57166282,4.94521025 0.967813422,4.79217993 0.583169626,4.48611927 L0.583169626,4.48611927 Z M4.39651995,28.3464425 C3.40426176,29.3120339 1.8235851,29.3120339 0.831326914,28.3464425 C0.362543554,27.865293 0.108851704,27.214648 0.128214599,26.5431662 L0.128214599,10.9258009 C0.105450415,10.2500607 0.359394035,9.59428861 0.831326914,9.11011673 C1.8235851,8.14452528 3.40426176,8.14452528 4.39651995,9.11011673 C4.86530331,9.59126626 5.11899516,10.2419112 5.09963226,10.913393 L5.09963226,26.5431662 C5.11899516,27.214648 4.86530331,27.865293 4.39651995,28.3464425 L4.39651995,28.3464425 Z" id="Shape"></path>
                                    <path d="M25.4940254,1.27661835 C26.7852586,2.13603254 27.8426662,3.30287608 28.5711757,4.67223724 C29.3470303,6.10398971 29.7469087,7.70919552 29.733379,9.33759425 C29.742358,10.9575598 29.3426301,12.5536261 28.5711757,13.9781355 C27.8456584,15.3518268 26.7877833,16.5220301 25.4940254,17.3820263 C24.311093,18.1972478 22.9104794,18.6381817 21.4738773,18.6476285 L14.2607721,18.6476285 L14.2607721,26.4811269 C14.2862688,27.1521121 14.0488325,27.8065458 13.5990194,28.3050829 C13.1457098,28.7774497 12.5119898,29.0333462 11.8577824,29.0081953 C11.212405,29.0280305 10.5908869,28.7633938 10.157905,28.2844032 C9.71126723,27.791937 9.47262682,27.145681 9.49201626,26.4811269 L9.49201626,2.53808456 C9.47947009,1.8626531 9.74282923,1.2112987 10.2212937,0.734395317 C10.6997581,0.257491929 11.3519697,-0.00373720441 12.0273565,0.0110161811 L21.4780133,0.0110161811 C22.9132029,0.0212902466 24.3122571,0.46218684 25.4940254,1.27661835 L25.4940254,1.27661835 Z M23.0124525,13.2708873 C23.5452104,12.7934901 23.9684723,12.206567 24.2532389,11.5503301 C24.8872128,10.1404037 24.8872128,8.52651286 24.2532389,7.11658652 C23.9742582,6.46299696 23.549905,5.88163311 23.0124525,5.4167091 C22.5882398,5.02208689 22.0363125,4.79309581 21.4573335,4.77150015 L14.2607721,4.77150015 L14.2607721,13.936776 L21.4738773,13.936776 C22.0557892,13.9140371 22.6091313,13.6785723 23.0289963,13.2750232 L23.0124525,13.2708873 Z" id="Shape"></path>
                                    <path d="M51.4802294,7.14140225 C51.9583155,7.6252618 52.2143963,8.28568056 52.1874776,8.96535832 L52.1874776,26.4811269 C52.2057414,27.1532075 51.9505244,27.8039363 51.4802294,28.2844032 C50.4919904,29.2361396 48.928091,29.2361396 47.939852,28.2844032 C47.4781504,27.8051739 47.2176468,27.1672361 47.211924,26.5018067 C45.5356069,28.3231041 43.1812397,29.37082 40.7060671,29.396975 C38.8730172,29.4187062 37.0729548,28.9087125 35.5237157,27.9287111 C33.955447,26.9233011 32.6879282,25.5128829 31.8551238,23.8465237 C30.9341603,22.0071297 30.4715779,19.9723346 30.5068026,17.9155645 C30.4791498,15.8685558 30.9339743,13.8438072 31.8344441,12.0052851 C32.6465321,10.3323325 33.9009025,8.9134779 35.4616764,7.90241793 C36.9750594,6.92728938 38.7403529,6.41552679 40.5406289,6.43001803 C41.8174478,6.42301596 43.0828662,6.67047554 44.2629882,7.15794607 C45.3453081,7.59266148 46.3411954,8.21736719 47.2036521,9.00258191 L47.2036521,8.96122236 C47.1842892,8.28974058 47.437981,7.6390956 47.9067644,7.15794607 C48.8969519,6.19518396 50.470668,6.18605567 51.4719574,7.1372663 L51.4802294,7.14140225 Z M45.7188443,22.9117979 C46.879853,21.524621 47.4854885,19.7563421 47.4187217,17.9486521 C47.4792234,16.1418923 46.8743332,14.3757895 45.7188443,12.9855064 C44.6190832,11.719244 43.0243088,10.992037 41.3471401,10.992037 C39.6699714,10.992037 38.075197,11.719244 36.9754359,12.9855064 C35.819947,14.3757895 35.2150568,16.1418923 35.2755585,17.9486521 C35.2077232,19.7529765 35.8053335,21.5193124 36.9547561,22.9117979 C38.0320013,24.2050084 39.64411,24.9309911 41.3264603,24.8805124 C43.0141389,24.9281221 44.6313559,24.2032678 45.7188443,22.9117979 L45.7188443,22.9117979 Z" id="Shape"></path>
                                    <path d="M75.9774896,7.14140225 C76.4555758,7.6252618 76.7116565,8.28568056 76.6847379,8.96535832 L76.6847379,27.4075808 C76.6847379,30.7825199 75.6410986,33.2765006 73.5538201,34.889523 C71.4665416,36.5025454 68.8209092,37.3118138 65.6169228,37.3173284 C64.4667837,37.2809733 63.3221441,37.1425647 62.1964882,36.903733 C61.1402561,36.7381531 60.1045956,36.4608678 59.10693,36.076542 C57.7530941,35.4975083 57.0761762,34.6965118 57.0761762,33.6735523 C57.0819641,33.4464141 57.123847,33.2216427 57.2002548,33.0076635 C57.3249547,32.4650117 57.6242666,31.9782667 58.0522615,31.6221187 C58.4193699,31.3159449 58.8812123,31.1464079 59.3592232,31.1423479 C59.6261353,31.1411769 59.8914883,31.1830747 60.1450547,31.2664266 C60.2581041,31.2939996 60.9474299,31.5504288 62.213032,32.0357142 C63.2993157,32.4841364 64.458651,32.7294613 65.6334667,32.7595063 C67.6766283,32.7595063 69.2027957,32.3459108 70.2119686,31.5187198 C71.2355857,30.6690855 71.7969511,29.3853073 71.7257281,28.0569257 L71.7257281,26.0675314 C70.9891067,27.0338798 70.048636,27.8260781 68.9711822,28.387802 C67.7643205,29.071152 66.3999581,29.4275685 65.0130734,29.4217907 C63.1477691,29.4420048 61.3149664,28.932893 59.7273232,27.9535268 C58.1268363,26.9617781 56.8292644,25.5497567 55.9760122,23.8713394 C55.04048,22.0364349 54.5703524,19.9996886 54.6070112,17.9403802 C54.5684345,15.8838293 55.0252138,13.8481825 55.9387886,12.0052851 C56.7687676,10.3250433 58.0451201,8.90560186 59.6280603,7.90241793 C61.1836291,6.92245185 62.9885386,6.41127621 64.8269555,6.43001803 C66.1886255,6.41858843 67.5350602,6.71701041 68.7643844,7.30270449 C69.876504,7.80480626 70.8775542,8.52325665 71.7091843,9.41617739 L71.7091843,8.96122236 C71.6898214,8.28974058 71.9435132,7.6390956 72.4122966,7.15794607 C73.4024841,6.19518396 74.9762002,6.18605567 75.9774896,7.1372663 L75.9774896,7.14140225 Z M70.1540653,22.9117979 C71.351377,21.5418027 71.9814548,19.7669358 71.915982,17.9486521 C71.9748153,16.1313955 71.3455761,14.3588909 70.1540653,12.9855064 C68.9893664,11.7178352 67.3466807,10.9963341 65.6251948,10.9963341 C63.9037088,10.9963341 62.2610231,11.7178352 61.0963243,12.9855064 C59.9191033,14.3656519 59.2996157,16.1356166 59.3592232,17.9486521 C59.2931248,19.7626754 59.9134132,21.534928 61.0963243,22.9117979 C62.2320708,24.2122582 63.8911853,24.9348003 65.6169228,24.8805124 C67.3468071,24.9315882 69.0096705,24.210054 70.1540653,22.9117979 L70.1540653,22.9117979 Z" id="Shape"></path>
                                    <path d="M99.2339634,19.0364082 C98.7467737,19.4454019 98.1287708,19.6655929 97.4927265,19.6568015 L83.810988,19.6568015 C84.07314,21.1726305 84.8862381,22.538105 86.094035,23.4908316 C87.2350834,24.4013439 88.6544254,24.8919807 90.1141831,24.8805124 C91.0084542,24.9106502 91.9021709,24.8060812 92.7653301,24.5703158 C93.2941685,24.4099846 93.8022615,24.1878675 94.2790896,23.908563 L95.0442412,23.4287922 C95.4791769,23.1971307 95.9619931,23.0697012 96.4546018,23.0565563 C97.0165228,23.0487645 97.5567468,23.2732343 97.9476815,23.6769495 C98.3446217,24.0554339 98.5688837,24.580207 98.5680747,25.1286697 C98.5680747,25.8772775 98.1834309,26.5514381 97.4100074,27.1594235 C96.4774101,27.8787241 95.4242443,28.4263143 94.2997694,28.7765818 C90.9945504,29.879822 87.3833046,29.5962944 84.2907588,27.9907504 C82.5989318,27.0690466 81.2045183,25.6846751 80.2706107,23.999554 C79.3172756,22.2382602 78.8330185,20.2613521 78.8643861,18.2588487 C78.8226145,16.0793195 79.3424977,13.9257214 80.3740096,12.0052851 C81.2824023,10.2916665 82.6445391,8.86085053 84.3114385,7.86933029 C85.8905155,6.93059261 87.6939757,6.43614155 89.5310135,6.43828296 C91.3577863,6.4403817 93.1468945,6.95790417 94.6926851,7.93136962 C96.3040793,8.92161367 97.6375636,10.3049079 98.5680747,11.9515177 C99.5292219,13.6142312 100.030294,15.5028885 100.019957,17.4233859 C100.007015,18.05027 99.7197327,18.639955 99.2339634,19.0364082 L99.2339634,19.0364082 Z M83.8523475,15.5125748 L94.7133648,15.5125748 L94.7133648,15.2230579 C94.5866674,14.0345893 93.97073,12.9525776 93.0134874,12.2368986 C92.0358111,11.4246823 90.8020071,10.9850846 89.5310135,10.9961121 C86.3270272,10.9961121 84.4341385,12.5015997 83.8523475,15.5125748 L83.8523475,15.5125748 Z" id="Shape"></path>
                                </g>
                                <path d="M16.3204776,0.0854633675 L16.3949248,0.0110105064 L26.0234276,0.0110105064 C26.8227042,0.00991827266 27.5896204,0.326660345 28.1551827,0.891446752 C28.6641887,1.39975452 28.9725022,2.0714347 29.0290748,2.78336086 L29.0385386,3.02199127 L29.0385386,25.9517247 C29.0385386,26.751002 28.7207449,27.5174828 28.1551827,28.0822692 C27.6461767,28.590577 26.9740739,28.8979688 26.2620708,28.9535658 L26.0234276,28.9627056 L3.1019661,28.9627056 C1.50331536,28.9648928 0.192453616,27.7258321 0.0819749729,26.1543721 L0.0744471863,25.9475887 L0.0744471863,16.3314938 L-4.50172837e-15,16.3314938 L16.3204776,0.0110105064 L16.3204776,0.0854633675 Z M16.9199053,1.27726088 L16.32,1.87600769 L16.3204776,13.3081109 C16.3204776,14.9083055 15.0773142,16.2181437 13.504094,16.3245188 L13.2970947,16.3314938 L1.79,16.3310077 L1.34061707,16.7817888 L1.34061707,25.9014906 L1.34597902,26.0655086 C1.40633031,26.9239519 2.08315685,27.6066066 2.93038138,27.687541 L3.10196609,27.6955788 L25.9749494,27.6965064 L26.1634273,27.6902874 C26.5768187,27.6580076 26.965782,27.4792831 27.2598059,27.1856625 C27.540566,26.9052876 27.715899,26.5390895 27.7602643,26.1486685 L27.7714147,25.9517247 L27.77241,3.07220437 L27.7659328,2.88373544 C27.7330866,2.47039001 27.5538293,2.08167345 27.2598059,1.78805339 C26.9790454,1.50767798 26.612606,1.33284701 26.2221232,1.28901665 L26.0251636,1.27813603 L16.9199053,1.27726088 Z M15.0521647,3.07024118 L3.05883706,15.0635688 L13.2970947,15.0643699 C14.2099936,15.0643699 14.9602119,14.3678515 15.0453141,13.4772503 L15.0533537,13.3081109 L15.0521647,3.07024118 Z" id="Combined-Shape"></path>
                            </g>
                        </g>
                    </g>
                </g>
            </g>
        </g>
    </g>
</svg>