<?xml version="1.0" encoding="UTF-8"?>
<svg width="221px" height="38px" viewBox="0 0 221 38" version="1.1" xmlns="http://www.w3.org/2000/svg" xmlns:xlink="http://www.w3.org/1999/xlink">
    <title>domain</title>
    <g id="Page-1" stroke="none" stroke-width="1" fill="none" fill-rule="evenodd">
        <g id="Desktop-HD" transform="translate(-1008.000000, -1829.000000)" fill="#000000" fill-rule="nonzero">
            <g id="Brands" transform="translate(0.000000, 1645.000000)">
                <g id="Group-6" transform="translate(478.000000, 60.000000)">
                    <g id="Group-4" transform="translate(0.000000, 120.000000)">
                        <g id="domain" transform="translate(530.791789, 4.398827)">
                            <path d="M6.05891392,4.92068037 C13.0067155,-1.45344953 23.6130666,-1.65833709 30.8018567,4.44271005 C37.9906468,10.5437572 39.5131439,21.0422649 34.3536022,28.9340713 L34.3536022,28.9340713 L27.6259488,28.9340713 C33.3590591,23.8811323 33.9181422,15.1402301 28.875506,9.3980559 C23.8328697,3.65588164 15.0929855,3.08110393 9.3417658,8.1134212 C3.59054607,13.1457385 3.00007563,21.8845765 8.02205769,27.6448231 C13.0440397,33.4050698 21.7818034,34.0112311 27.5510584,28.9996004 L27.5510584,28.9996004 L27.5510584,35.1749371 C19.2449263,39.63696 8.91616383,37.2175948 3.45568609,29.53094 C-2.00479165,21.8442852 -0.888887669,11.2948103 6.05891392,4.92068037 Z M31.8198106,30.5660558 C32.4981481,30.5660558 33.148657,30.8357391 33.6280213,31.3156887 C34.1073855,31.7956382 34.3762734,32.4464758 34.3754471,33.1248127 C34.3754471,34.1600163 33.7516856,35.093228 32.7951613,35.4890911 C31.8386369,35.8849542 30.7378264,35.6654655 30.0062736,34.9330195 C29.2747209,34.2005736 29.0565756,33.099496 29.4536056,32.1434555 C29.8506357,31.1874149 30.7846078,30.5647953 31.8198106,30.5660558 Z M159.963508,23.345376 C160.284649,23.3443045 160.60282,23.406878 160.899638,23.5294815 C161.183357,23.6485739 161.443365,23.8176847 161.667265,24.0287508 C161.884919,24.2391302 162.058837,24.4904624 162.179016,24.7682934 C162.303911,25.0578417 162.366632,25.3703838 162.363121,25.6857007 C162.368051,26.0071994 162.305325,26.3261422 162.179016,26.6218305 C162.061295,26.9028423 161.887113,27.1566813 161.667265,27.367614 C161.444752,27.5788717 161.184302,27.7461526 160.899638,27.8606424 C160.60191,27.9794879 160.284077,28.0398761 159.963508,28.0385071 C159.63567,28.0419106 159.310302,27.9815001 159.005535,27.8606424 C158.723347,27.7467444 158.46586,27.5793251 158.24727,27.367614 C158.030272,27.1555914 157.858331,26.9019255 157.74176,26.6218305 C157.61652,26.325911 157.554859,26.0069769 157.560775,25.6857007 C157.558249,25.3701611 157.622035,25.0576099 157.748001,24.7682934 C157.867036,24.4913764 158.038717,24.2402125 158.253511,24.0287508 C158.710895,23.5840717 159.325628,23.3384026 159.963508,23.345376 Z M121.48233,9.30654836 L128.727975,28.0260253 L125.361028,28.0260253 C125.036689,28.0417077 124.716288,27.9495375 124.449861,27.763909 C124.219002,27.5883644 124.037359,27.3562057 123.922508,27.0898955 L122.817875,23.8259227 L115.697047,23.8259227 L114.592414,27.0898955 C114.48582,27.3480452 114.311094,27.5723851 114.086904,27.7389455 C113.826713,27.9374393 113.505939,28.0399546 113.178858,28.0291458 L109.786947,28.0291458 L117.035713,9.30654836 L121.48233,9.30654836 Z M75.1813462,9.30342793 C76.5145032,9.28535869 77.8380474,9.53140217 79.0756465,10.0273684 C80.1979905,10.4786497 81.2178733,11.1514964 82.0743825,12.0057228 C82.9107154,12.8547473 83.5666767,13.8641635 84.0028101,14.9732545 C84.4656462,16.14832 84.6966466,17.401868 84.6830644,18.6647266 C84.694366,19.9299943 84.4612683,21.1855434 83.9965692,22.3624396 C83.1150761,24.6255902 81.3291967,26.4182557 79.0694056,27.3083258 C76.557716,28.2686943 73.780013,28.2686943 71.2683234,27.3083258 C69.0016822,26.4188937 67.2090103,24.6239597 66.3224372,22.3561988 C65.4066881,19.9761022 65.4066881,17.3408693 66.3224372,14.9607728 C66.7596477,13.8507539 67.4178536,12.8411509 68.2571056,11.9932411 C69.1171948,11.1390524 70.1415789,10.4681605 71.2683234,10.0211275 C72.5133241,9.52880755 73.8426657,9.28498892 75.1813462,9.30342793 Z M173.203505,9.30342793 C174.384006,9.2793014 175.557413,9.49149067 176.654704,9.92751451 C177.628119,10.3292361 178.520481,10.904408 179.288349,11.62503 L178.467675,12.7671085 C178.417013,12.8504235 178.348876,12.9217541 178.267968,12.9761775 C178.174455,13.0342287 178.065947,13.0635258 177.955924,13.0604291 C177.747491,13.0369261 177.551364,12.9497588 177.394246,12.8107945 C177.115062,12.6089242 176.82437,12.4234653 176.523646,12.2553575 C175.508044,11.6940623 174.360265,11.4160088 173.200385,11.4502858 C172.311778,11.4398718 171.430084,11.6075104 170.607305,11.9433142 C169.83268,12.2592175 169.137805,12.7430723 168.572783,13.3599907 C167.983386,14.0216486 167.533404,14.7953206 167.249719,15.6347863 C166.921207,16.6106274 166.760825,17.6351768 166.775413,18.6647266 C166.759063,19.7040809 166.925957,20.7381881 167.268442,21.7196304 C167.561306,22.5570966 168.017367,23.3281585 168.610228,23.9881852 C169.167725,24.5995436 169.852666,25.0810266 170.616666,25.3986208 C171.407638,25.7269101 172.256647,25.8924668 173.113012,25.8854084 C173.606704,25.8892781 174.100014,25.856947 174.588977,25.7886749 C175.003514,25.7280011 175.41042,25.623398 175.802826,25.4766317 C176.166422,25.3432168 176.513919,25.1694682 176.838809,24.9586398 C177.175108,24.7353723 177.493333,24.4860095 177.790541,24.2128563 C177.909507,24.1025348 178.06517,24.0402696 178.227402,24.0381121 C178.365198,24.0392382 178.49588,24.0994657 178.586252,24.203495 L179.569188,25.2644422 C178.819964,26.1340483 177.888964,26.8285697 176.84193,27.2989645 C175.615188,27.8135282 174.293053,28.0613621 172.963232,28.0260253 C171.736237,28.0427504 170.518613,27.810266 169.384095,27.3426505 C168.34114,26.9081604 167.403642,26.2547845 166.634994,25.4267047 C165.855514,24.5672039 165.256047,23.5603107 164.871949,22.4654139 C164.443235,21.2469266 164.231993,19.9625772 164.247863,18.6709675 C164.233346,17.3770681 164.454333,16.0913208 164.900033,14.8765211 C165.303232,13.773672 165.927618,12.7648848 166.734848,11.9121098 C167.532017,11.0780365 168.496516,10.4219214 169.56508,9.98680274 C170.720729,9.52052689 171.957428,9.28824808 173.203505,9.30342793 Z M54.0591359,9.30342793 C55.4171394,9.28614964 56.7661056,9.52650703 58.0345674,10.0117662 C59.1784127,10.4477013 60.2219224,11.1111739 61.101953,11.9620368 C61.9545668,12.8029666 62.6257521,13.8097445 63.0740666,14.9202072 C63.5494639,16.1107262 63.7869316,17.3828744 63.7730436,18.6647266 C63.7862068,19.9465157 63.5487651,21.2185246 63.0740666,22.4092461 C62.6257599,23.5233812 61.9546821,24.5342453 61.101953,25.3798982 C60.2228558,26.2327053 59.1791472,26.8973662 58.0345674,27.3332892 C56.764266,27.8102676 55.4158988,28.0452264 54.0591359,28.0260253 L46.7854068,28.0260253 L46.7854068,9.30342793 L54.0591359,9.30342793 Z M90.3653727,9.30342793 C90.4945109,9.30971928 90.6218876,9.33603677 90.7429451,9.38143875 C90.8601269,9.42476126 90.9665684,9.49288383 91.0549884,9.58114646 C91.1616217,9.69247824 91.2500753,9.81989348 91.3171048,9.95871884 L96.1381736,19.4541962 C96.3097974,19.7662395 96.4720599,20.1188484 96.631202,20.4714573 C96.7903441,20.8240662 96.9432453,21.182916 97.0867852,21.5511271 C97.2334456,21.1735547 97.3988285,20.8053436 97.5454888,20.4433734 C97.6921492,20.0814032 97.8731343,19.741276 98.050999,19.416751 L102.856466,9.95871884 C102.925676,9.82041109 103.015065,9.69316237 103.121702,9.58114646 C103.210122,9.49288383 103.316564,9.42476126 103.433746,9.38143875 C103.554803,9.33603677 103.68218,9.30971928 103.811318,9.30342793 L107.602644,9.30342793 L107.602644,28.0260253 L103.773873,28.0260253 L103.773873,17.2574114 C103.773873,17.0077768 103.773873,16.7394195 103.792596,16.4492193 C103.811318,16.159019 103.830041,15.8625779 103.864365,15.5598959 L98.8966363,25.1864314 C98.759311,25.4691332 98.5423998,25.7055664 98.2725497,25.8666858 C98.0020629,26.0245026 97.6931917,26.1044203 97.3801059,26.0975978 L96.7903441,26.0975978 C96.4772582,26.1044203 96.1683871,26.0245026 95.8979003,25.8666858 C95.6280502,25.7055664 95.411139,25.4691332 95.2738137,25.1864314 L90.2936028,15.5442937 C90.3185662,15.8521764 90.3404093,16.1548584 90.3591319,16.4523397 C90.374734,16.7456604 90.3840953,17.0171381 90.3840953,17.2667727 L90.3840953,28.0260253 L86.5553242,28.0260253 L86.5553242,9.30342793 L90.3653727,9.30342793 L90.3653727,9.30342793 Z M140.376551,9.30331786 C140.536048,9.30224608 140.695473,9.31058204 140.853977,9.32839139 C140.973403,9.34420811 141.090005,9.37677266 141.200345,9.42512481 C141.308228,9.47712753 141.408065,9.54438624 141.496786,9.62483252 C141.608664,9.73295399 141.712928,9.84868634 141.80883,9.97120057 L150.711425,21.204759 C150.670859,20.8459092 150.639655,20.4964207 150.624053,20.159414 C150.60845,19.8224072 150.595969,19.5010027 150.595969,19.2014411 L150.595969,9.30331786 L154.440342,9.30331786 L154.440342,28.0260253 L152.181149,28.0260253 C151.892084,28.0348015 151.604578,27.9804948 151.338632,27.8668833 C151.075951,27.730655 150.845982,27.5390143 150.664618,27.3052053 L141.830673,16.1402964 C141.864997,16.4741827 141.88684,16.7987078 141.899322,17.1107511 C141.911804,17.4227943 141.918045,17.716115 141.918045,17.9907131 L141.918045,28.0260253 L138.089274,28.0260253 L138.089274,9.30331786 L140.376551,9.30331786 Z M202.338987,9.30342793 C202.515102,9.29671509 202.691129,9.31885026 202.860099,9.36895702 C203.016549,9.44589971 203.141252,9.57501667 203.212708,9.73404767 L209.672004,21.2578064 C209.774979,21.4668754 209.877953,21.6853057 209.984048,21.9099769 C210.090142,22.134648 210.177514,22.3686805 210.264887,22.602713 C210.352259,22.3686805 210.445872,22.134648 210.539485,21.903736 C210.631574,21.6788098 210.73574,21.4590195 210.851528,21.2453246 L217.201609,9.73404767 C217.26642,9.57272162 217.390283,9.44216332 217.547977,9.36895702 C217.719146,9.31914972 217.897177,9.29702753 218.07533,9.30342793 L219.941349,9.30342793 L219.941349,28.0260253 L217.719601,28.0260253 L217.719601,14.2680367 C217.719601,14.0839311 217.719601,13.8904643 217.738323,13.6813953 C217.757046,13.4723263 217.766407,13.2570164 217.78513,13.0417065 L211.357038,24.7464504 C211.200522,25.1102308 210.838664,25.3424126 210.442751,25.3330917 L210.077661,25.3330917 C209.681748,25.3424126 209.31989,25.1102308 209.163374,24.7464504 L202.610465,12.9886592 C202.660796,13.4132861 202.686842,13.8404404 202.688475,14.2680367 L202.688475,28.0260253 L200.466727,28.0260253 L200.466727,9.30342793 L202.338987,9.30342793 Z M19.4784985,9.30342793 C24.5741654,9.30342793 27.6165875,12.554919 27.5104928,18.8207483 C27.4075185,24.8119795 24.2340383,28.0260253 19.4504146,28.0260253 L12.8475786,28.0260253 L12.8975055,9.30342793 L19.4784985,9.30342793 Z M135.280884,9.30342793 L135.280884,28.0260253 L130.912278,28.0260253 L130.912278,9.30342793 L135.280884,9.30342793 Z M193.233564,9.98056187 C194.311872,10.4185487 195.285798,11.0788195 196.09188,11.9183507 C196.900817,12.7727475 197.528173,13.7822502 197.936056,14.8858824 C198.38117,16.0954278 198.60217,17.375955 198.588227,18.6647266 C198.60217,19.9534982 198.38117,21.2340255 197.936056,22.4435709 C197.530418,23.5464499 196.902743,24.5543411 196.09188,25.4048617 C195.286054,26.2416286 194.311821,26.8978535 193.233564,27.3301688 C190.858105,28.2419208 188.229198,28.2419208 185.85374,27.3301688 C184.778204,26.896161 183.806345,26.2401029 183.001664,25.4048617 C182.191851,24.5535278 181.564319,23.5458662 181.157488,22.4435709 C180.712374,21.2340255 180.491375,19.9534982 180.505318,18.6647266 C180.491375,17.375955 180.712374,16.0954278 181.157488,14.8858824 C181.566148,13.7826305 182.193413,12.7732757 183.001664,11.9183507 C183.806532,11.0802548 184.778105,10.4201373 185.85374,9.98056187 C188.227754,9.06104756 190.85955,9.06104756 193.233564,9.98056187 Z M186.86476,11.9370733 C186.084012,12.2560254 185.38302,12.7428848 184.811515,13.3631111 C184.220892,14.0205653 183.774456,14.7943893 183.500934,15.6347863 C183.179555,16.6120536 183.023471,17.636091 183.039109,18.6647266 C183.022994,19.6913526 183.179099,20.7134168 183.500934,21.6884261 C183.77516,22.5266455 184.221566,23.2982906 184.811515,23.9538604 C185.381675,24.5741063 186.083165,25.0591795 186.86476,25.3736574 C188.5931,26.0269185 190.500445,26.0269185 192.228784,25.3736574 C193.007908,25.0652479 193.707557,24.5853055 194.275788,23.9694626 C194.862682,23.3127361 195.306835,22.5413122 195.580129,21.7040283 C195.903693,20.7240598 196.05982,19.6965758 196.041953,18.6647266 C196.057592,17.636091 195.901508,16.6120536 195.580129,15.6347863 C195.307536,14.7953252 194.863353,14.0217235 194.275788,13.3631111 C193.707791,12.7416832 193.008531,12.2545465 192.228784,11.9370733 C190.502106,11.2747791 188.591438,11.2747791 186.86476,11.9370733 Z M54.0466542,12.6610137 L51.1540129,12.6610137 L51.1540129,24.6840417 L54.0591359,24.6840417 C54.8194678,24.7033939 55.5756728,24.5663849 56.2808842,24.2815059 C56.91639,24.0165926 57.48153,23.607427 57.9315932,23.0863801 C58.4005128,22.527007 58.7489469,21.8768799 58.9550952,21.1766751 C59.2086428,20.3637401 59.3339238,19.5162509 59.3264267,18.6647266 C59.333166,17.8183678 59.2078838,16.9761344 58.9550952,16.1683803 C58.7432525,15.4726743 58.390623,14.8279571 57.9191114,14.2742775 C57.4690483,13.7532306 56.9039083,13.344065 56.2684024,13.0791517 C55.5643161,12.7889356 54.808071,12.6466086 54.0466542,12.6610137 Z M75.1813462,12.8107945 C74.4337721,12.7989926 73.6913011,12.9358194 72.9970432,13.2133304 C72.3747815,13.4701091 71.819683,13.8661504 71.3744181,14.371011 C70.9150018,14.9090622 70.5708964,15.5356739 70.3633978,16.2120664 C70.1132207,17.005349 69.9889748,17.832953 69.9951868,18.6647266 C69.9839408,19.4977226 70.1029118,20.3273611 70.3477957,21.1236278 C70.5552943,21.8000203 70.8993997,22.4266319 71.3588159,22.9646832 C71.8039248,23.4681959 72.3591998,23.8622276 72.981441,24.1161229 C73.6769812,24.388523 74.4188415,24.5231177 75.1657441,24.5124179 C75.9127921,24.524888 76.6549927,24.3902316 77.3500471,24.1161229 C77.969795,23.8625679 78.5220934,23.4683743 78.9633109,22.9646832 C79.4226099,22.4260521 79.7676406,21.7996886 79.9774516,21.1236278 C80.2233922,20.3275288 80.3434166,19.4978866 80.333181,18.6647266 C80.3437897,17.8358651 80.2248184,17.0104359 79.980572,16.2183072 C79.7707611,15.5422464 79.4257303,14.9158829 78.9664314,14.3772518 C78.528907,13.871923 77.9812597,13.4737311 77.3656493,13.2133304 C76.6719078,12.9340358 75.9290736,12.797142 75.1813462,12.8107945 Z M19.013554,13.556578 L18.834555,13.5569204 C18.5472997,13.5581189 18.0427527,13.5635123 17.9214025,13.5877823 L17.9214025,23.7291892 L19.0478788,23.7291892 C20.548807,23.6137332 22.4335485,22.9834058 22.4335485,18.7364966 C22.4335485,14.4895874 20.2274024,13.5877823 19.013554,13.556578 Z M119.244979,13.1571626 C119.117041,13.6813953 118.979742,14.1650624 118.833082,14.6112843 C118.686422,15.0575062 118.552243,15.4413194 118.421185,15.7658445 L116.701826,20.8677523 L121.828698,20.8677523 L120.093737,15.740881 C119.965799,15.4288377 119.8285,15.0325427 119.68184,14.5925617 C119.53518,14.1525807 119.39164,13.6564318 119.244979,13.1571626 Z" id="Combined-Shape"></path>
                        </g>
                    </g>
                </g>
            </g>
        </g>
    </g>
</svg>