<?xml version="1.0" encoding="UTF-8"?>
<svg width="221px" height="46px" viewBox="0 0 221 46" version="1.1" xmlns="http://www.w3.org/2000/svg" xmlns:xlink="http://www.w3.org/1999/xlink">
    <title>endurance</title>
    <g id="Page-1" stroke="none" stroke-width="1" fill="none" fill-rule="evenodd">
        <g id="Desktop-HD" transform="translate(-730.000000, -1825.000000)" fill="#000000">
            <g id="Brands" transform="translate(0.000000, 1645.000000)">
                <g id="Group-6" transform="translate(478.000000, 60.000000)">
                    <g id="Group-4" transform="translate(0.000000, 120.000000)">
                        <g id="endurance" transform="translate(252.199413, 0.000000)">
                            <path d="M178.763286,35.6918745 C180.699147,35.6918745 181.903631,37.2389359 181.903631,39.474647 C181.903631,41.7529907 180.541188,43.2432087 178.662592,43.2432087 C177.078592,43.2432087 176.403231,42.0485984 176.297754,41.8408401 L176.282833,41.8102181 L176.282833,41.8102181 L176.254008,41.8102181 C176.254008,41.8102181 176.297053,42.0679337 176.297053,42.4408723 L176.297053,45.134403 L177.515757,45.134403 L177.515757,45.9367395 L174.103308,45.9367395 L174.103308,45.134403 L175.322012,45.134403 L175.322012,36.9812203 C175.322012,36.7661373 175.207098,36.6658933 175.006863,36.6658933 L174.031439,36.6658933 L174.031439,35.8635568 L175.393498,35.8635568 C176.010344,35.8635568 176.254008,36.1220405 176.254008,36.6232607 L176.254008,36.6801041 C176.254008,36.9670095 176.210579,37.1820925 176.210579,37.1820925 L176.239788,37.1820925 C176.239788,37.1820925 176.827426,35.6918745 178.763286,35.6918745 Z M18.6902586,8.71508795e-14 C21.1845478,8.71508795e-14 23.2064978,2.02062813 23.2064978,4.51328667 C23.2064978,6.21705142 22.2618194,7.69997201 20.8674771,8.46850972 L20.8674771,8.46850972 L20.8674771,8.70471696 C30.1632203,9.78320466 37.3797485,17.6763673 37.3797485,27.2556272 C37.3797485,37.5707782 29.0113891,45.9328987 18.6902586,45.9328987 C8.36797517,45.9328987 0,37.5707782 0,27.2556272 C0,17.6840489 7.20461409,9.79549512 16.4903647,8.7074055 L16.4903647,8.7074055 L16.4903647,8.45583519 C15.1083209,7.68384079 14.1736351,6.20783358 14.1736351,4.51328667 C14.1736351,2.02062813 16.1955851,8.71508795e-14 18.6902586,8.71508795e-14 Z M109.613442,35.6918745 C111.721097,35.6918745 113.427513,37.2965474 113.427513,39.4312463 C113.427513,41.609346 111.721097,43.2432087 109.613442,43.2432087 C107.520007,43.2432087 105.813974,41.609346 105.813974,39.4312463 C105.813974,37.2965474 107.520007,35.6918745 109.613442,35.6918745 Z M127.366708,35.6922585 C129.116554,35.6922585 130.019341,36.6232607 130.019341,38.4000001 L130.019341,41.9534788 C130.019341,42.1685618 130.134255,42.2688059 130.334874,42.2688059 L131.1239,42.2688059 L131.1239,43.0715264 L129.947856,43.0715264 C129.331009,43.0715264 129.087345,42.7992159 129.087345,42.2830167 L129.087345,42.154351 C129.087345,41.8102181 129.130774,41.5955192 129.130774,41.5955192 L129.101565,41.5955192 C129.101565,41.5955192 128.485487,43.2435928 126.635716,43.2435928 C125.460057,43.2435928 124.227132,42.5703062 124.227132,41.094299 C124.227132,38.8254584 127.176448,38.6660368 128.46218,38.6587791 L129.044685,38.6584838 L129.044685,38.3573676 C129.044685,37.0100261 128.313308,36.5372275 127.309443,36.5372275 C126.226151,36.5372275 125.414943,37.0919672 125.248049,37.2152427 L125.216393,37.23932 L125.216393,37.23932 L124.757505,36.5088058 C124.757505,36.5088058 125.732545,35.6922585 127.366708,35.6922585 Z M159.920065,35.6918745 C162.028104,35.6918745 163.734137,37.2965474 163.734137,39.4312463 C163.734137,41.609346 162.028104,43.2432087 159.920065,43.2432087 C157.827014,43.2432087 156.120598,41.609346 156.120598,39.4312463 C156.120598,37.2965474 157.827014,35.6918745 159.920065,35.6918745 Z M91.8175144,35.6922585 C93.5669758,35.6922585 94.4705311,36.6232607 94.4705311,38.4000001 L94.4705311,41.9534788 C94.4705311,42.1685618 94.5854452,42.2688059 94.7856801,42.2688059 L95.5747056,42.2688059 L95.5747056,43.0715264 L94.3986617,43.0715264 C93.7821995,43.0715264 93.5381512,42.7992159 93.5381512,42.2830167 L93.5381512,42.154351 C93.5381512,41.8102181 93.5815802,41.5955192 93.5815802,41.5955192 L93.5527556,41.5955192 C93.5527556,41.5955192 92.9362934,43.2435928 91.086138,43.2435928 C89.9108628,43.2435928 88.677554,42.5703062 88.677554,41.094299 C88.677554,38.8254584 91.6272321,38.6660368 92.9129853,38.6587791 L93.4951064,38.6584838 L93.4951064,38.3573676 C93.4951064,37.0100261 92.7641144,36.5372275 91.7602495,36.5372275 C90.5415452,36.5372275 89.6671988,37.23932 89.6671988,37.23932 L89.2083111,36.5088058 C89.2083111,36.5088058 90.1833514,35.6922585 91.8175144,35.6922585 Z M69.0595274,35.6922585 C71.0526528,35.6922585 72.084958,37.2251091 72.084958,39.0164434 C72.084958,39.1881257 72.0419133,39.4750311 72.0419133,39.4750311 L66.5072047,39.4750311 C66.5502494,41.3232087 67.8119985,42.369434 69.3031914,42.369434 C70.6222054,42.369434 71.4969361,41.5098701 71.4969361,41.5098701 L71.9416037,42.2403842 C71.9416037,42.2403842 71.9224008,42.2590389 71.8850874,42.2912606 L71.7866371,42.3722861 C71.4411116,42.6445695 70.5374261,43.2435928 69.2743668,43.2435928 C67.1236669,43.2435928 65.5037241,41.6957633 65.5037241,39.4750311 C65.5037241,37.1102701 67.1094468,35.6922585 69.0595274,35.6922585 Z M166.889855,35.8635568 L166.889855,40.2051611 C166.889855,41.3374196 167.062033,42.3406282 168.466753,42.3406282 C170.08708,42.3406282 171.119385,40.8504102 171.119385,39.2883698 L171.119385,36.6658933 L169.829196,36.6658933 L169.829196,35.8635568 L172.09481,35.8635568 L172.09481,41.9680737 C172.09481,42.1823886 172.209724,42.2830167 172.409959,42.2830167 L173.227424,42.2830167 L173.227424,43.0711423 L172.00872,43.0711423 C171.406478,43.0711423 171.14821,42.8134268 171.14821,42.2688059 L171.14821,41.9104622 C171.14821,41.624325 171.16243,41.3950311 171.16243,41.3950311 L171.133989,41.3950311 C170.94759,41.9388839 170.058639,43.2435928 168.280738,43.2435928 C166.617366,43.2435928 165.914814,42.3264174 165.914814,40.4486658 L165.914814,36.6658933 L164.624241,36.6658933 L164.624241,35.8635568 L166.889855,35.8635568 Z M144.948565,32.8262773 C146.683422,32.8262773 148.748032,33.5425806 148.748032,34.8035048 L148.748032,35.9069575 L147.787596,35.9069575 L147.787596,35.1472535 C147.787596,34.2020405 146.239138,33.7292419 144.962785,33.7292419 C142.396242,33.7292419 140.761695,35.5340189 140.761695,38.0132347 C140.761695,40.4920665 142.439287,42.3410123 144.948565,42.3410123 C145.952045,42.3410123 148.03126,42.0253012 148.03126,40.8788319 L148.03126,39.3025806 L145.923605,39.3025806 L145.923605,38.4718225 L148.977476,38.4718225 L148.977476,41.1085098 C148.977476,42.6705502 146.453978,43.2435928 144.934345,43.2435928 C141.837045,43.2435928 139.715169,40.9932868 139.715169,38.0270615 C139.715169,35.0612203 141.80822,32.8262773 144.948565,32.8262773 Z M98.3856812,33.8721185 L98.3856812,35.8635568 L100.206628,35.8635568 L100.206628,36.6658933 L98.3856812,36.6658933 L98.3856812,40.3634008 C98.3856812,42.0537228 99.4610311,42.2830167 100.020228,42.2830167 C100.220848,42.2830167 100.349982,42.254595 100.349982,42.254595 L100.349982,43.099564 C100.349982,43.099564 100.177803,43.1287539 99.934139,43.1287539 C99.102453,43.1287539 97.4106408,42.8560593 97.4106408,40.4486658 L97.4106408,36.6658933 L96.1200672,36.6658933 L96.1200672,35.8635568 L97.424861,35.8635568 L97.424861,33.8721185 L98.3856812,33.8721185 Z M62.491745,33.8721185 L62.491745,35.8635568 L64.3126914,35.8635568 L64.3126914,36.6658933 L62.491745,36.6658933 L62.491745,40.3634008 C62.491745,42.0537228 63.5670949,42.2830167 64.1262923,42.2830167 C64.3269115,42.2830167 64.4560457,42.254595 64.4560457,42.254595 L64.4560457,43.099564 C64.4560457,43.099564 64.2842511,43.1287539 64.0402028,43.1287539 C63.2085168,43.1287539 61.5167046,42.8560593 61.5167046,40.4486658 L61.5167046,36.6658933 L60.226131,36.6658933 L60.226131,35.8635568 L61.5309248,35.8635568 L61.5309248,33.8721185 L62.491745,33.8721185 Z M133.705431,32.9979597 L133.705431,41.194543 C133.705431,41.7817965 133.86339,42.2688059 134.522897,42.2688059 C134.780781,42.2688059 134.924136,42.2403842 134.924136,42.2403842 L134.924136,43.0715264 C134.924136,43.0715264 134.652031,43.1149271 134.365323,43.1149271 C133.418722,43.1149271 132.730391,42.6413604 132.730391,41.2655972 L132.730391,33.8002961 L131.454422,33.8002961 L131.454422,32.9979597 L133.705431,32.9979597 Z M77.8214389,35.7925026 C78.0220581,35.7925026 78.2222931,35.8351351 78.2222931,35.8351351 L78.2222931,36.7949431 C78.2222931,36.7949431 78.0362783,36.7665214 77.8494948,36.7665214 C76.229552,36.7665214 75.570045,38.5862773 75.570045,40.019652 L75.570045,42.2688059 L76.6884397,42.2688059 L76.6884397,43.0711423 L73.47661,43.0711423 L73.47661,42.2688059 L74.5950047,42.2688059 L74.5950047,36.9816044 C74.5950047,36.7665214 74.4800906,36.6658933 74.2794713,36.6658933 L73.3040467,36.6658933 L73.3040467,35.8635568 L74.666874,35.8635568 C75.2687318,35.8635568 75.5408361,36.1070615 75.5408361,36.6801041 L75.5408361,37.1678817 C75.5408361,37.4686138 75.5127801,37.7121185 75.5127801,37.7121185 L75.5408361,37.7121185 C75.8997985,36.6232607 76.7030442,35.7925026 77.8214389,35.7925026 Z M84.216658,35.6918745 C85.9945597,35.6918745 86.6114063,36.7092939 86.6114063,38.4860333 L86.6114063,42.2688059 L87.8301106,42.2688059 L87.8301106,43.0711423 L85.6363659,43.0711423 L85.6363659,38.7437488 C85.6363659,37.6122585 85.4499668,36.6090499 84.0590835,36.6090499 C82.467581,36.6090499 81.3203617,38.0132347 81.3203617,39.6036968 L81.3203617,42.2688059 L82.539066,42.2688059 L82.539066,43.0711423 L79.126617,43.0711423 L79.126617,42.2688059 L80.3453213,42.2688059 L80.3453213,36.9816044 C80.3453213,36.7665214 80.2307916,36.6658933 80.029788,36.6658933 L79.0547477,36.6658933 L79.0547477,35.8635568 L80.4314108,35.8635568 C81.0336529,35.8635568 81.3061415,36.1220405 81.3061415,36.6658933 L81.3061415,37.0818485 C81.3061415,37.3679857 81.2488766,37.5972795 81.2488766,37.5972795 L81.2773169,37.5972795 C81.4783205,37.0534268 82.4103161,35.6918745 84.216658,35.6918745 Z M119.766236,35.6918745 C121.544138,35.6918745 122.1606,36.7092939 122.1606,38.4860333 L122.1606,42.2688059 L123.379305,42.2688059 L123.379305,43.0711423 L121.18556,43.0711423 L121.18556,38.7437488 C121.18556,37.6122585 120.999545,36.6090499 119.608662,36.6090499 C118.017159,36.6090499 116.86994,38.0132347 116.86994,39.6036968 L116.86994,42.2688059 L118.088644,42.2688059 L118.088644,43.0711423 L114.676195,43.0711423 L114.676195,42.2688059 L115.8949,42.2688059 L115.8949,36.9816044 C115.8949,36.7665214 115.779986,36.6658933 115.579366,36.6658933 L114.604326,36.6658933 L114.604326,35.8635568 L115.980605,35.8635568 C116.583231,35.8635568 116.85572,36.1220405 116.85572,36.6658933 L116.85572,37.0818485 C116.85572,37.3679857 116.798071,37.5972795 116.798071,37.5972795 L116.826895,37.5972795 C117.027514,37.0534268 117.95951,35.6918745 119.766236,35.6918745 Z M103.5768,35.8635568 L103.5768,42.2688059 L104.795505,42.2688059 L104.795505,43.0711423 L101.383056,43.0711423 L101.383056,42.2688059 L102.60176,42.2688059 L102.60176,36.6658933 L101.311186,36.6658933 L101.311186,35.8635568 L103.5768,35.8635568 Z M49.6705604,32.9979597 L49.6705604,33.829486 L48.3515464,33.829486 L48.3515464,42.2403842 L49.6705604,42.2403842 L49.6705604,43.0711423 L46.0286675,43.0711423 L46.0286675,42.2403842 L47.3476815,42.2403842 L47.3476815,33.829486 L46.0286675,33.829486 L46.0286675,32.9979597 L49.6705604,32.9979597 Z M56.1384175,35.6918745 C57.9163192,35.6918745 58.5327815,36.7092939 58.5327815,38.4860333 L58.5327815,42.2688059 L59.7514858,42.2688059 L59.7514858,43.0711423 L57.5577411,43.0711423 L57.5577411,38.7437488 C57.5577411,37.6122585 57.371342,36.6090499 55.9804587,36.6090499 C54.3889562,36.6090499 53.2417369,38.0132347 53.2417369,39.6036968 L53.2417369,42.2688059 L54.4604412,42.2688059 L54.4604412,43.0711423 L51.0479922,43.0711423 L51.0479922,42.2688059 L52.2666965,42.2688059 L52.2666965,36.9816044 C52.2666965,36.7665214 52.1521668,36.6658933 51.9515475,36.6658933 L50.9765072,36.6658933 L50.9765072,35.8635568 L52.352786,35.8635568 C52.9550281,35.8635568 53.2275167,36.1220405 53.2275167,36.6658933 L53.2275167,37.0818485 C53.2275167,37.3679857 53.1702518,37.5972795 53.1702518,37.5972795 L53.1986921,37.5972795 C53.3996957,37.0534268 54.3313069,35.6918745 56.1384175,35.6918745 Z M154.944169,35.7925026 C155.144404,35.7925026 155.345023,35.8351351 155.345023,35.8351351 L155.345023,36.7949431 C155.345023,36.7949431 155.158624,36.7665214 154.97261,36.7665214 C153.352282,36.7665214 152.692391,38.5862773 152.692391,40.019652 L152.692391,42.2688059 L153.81117,42.2688059 L153.81117,43.0711423 L150.59934,43.0711423 L150.59934,42.2688059 L151.717735,42.2688059 L151.717735,36.9816044 C151.717735,36.7665214 151.602821,36.6658933 151.402202,36.6658933 L150.427161,36.6658933 L150.427161,35.8635568 L151.78922,35.8635568 C152.391462,35.8635568 152.663951,36.1070615 152.663951,36.6801041 L152.663951,37.1678817 C152.663951,37.4686138 152.635126,37.7121185 152.635126,37.7121185 L152.663951,37.7121185 C153.022529,36.6232607 153.82539,35.7925026 154.944169,35.7925026 Z M27.9929197,37.7904702 C27.5125096,37.3111423 26.7688347,37.2519945 26.2188613,37.6506662 C24.6235154,38.8063534 22.752222,39.604465 20.7218168,39.9270895 C20.0511643,40.0338629 19.5661423,40.6011443 19.5661423,41.2805762 L19.5661423,41.2805762 L19.5661423,41.7161193 C19.5661423,42.0341349 19.6902803,42.3083658 19.9304853,42.5184558 C20.1307202,42.6935948 20.3655447,42.7838529 20.6218915,42.7838529 C20.6718542,42.7838529 20.7225855,42.7803962 20.7744698,42.7734828 C23.5412476,42.4055372 26.0797345,41.3166794 28.1954605,39.7008683 C28.4483484,39.5076776 28.5905498,39.2422805 28.6124565,38.9242649 C28.6332102,38.6054812 28.5267513,38.324337 28.3015351,38.0992679 L28.3015351,38.0992679 Z M11.1616559,37.6506662 C10.6116825,37.2519945 9.86723899,37.3111423 9.38721323,37.7904702 L9.38721323,37.7904702 L9.07898211,38.0992679 C8.8529972,38.324337 8.74692265,38.6054812 8.76844503,38.9242649 C8.78919874,39.2422805 8.93178446,39.5076776 9.18505666,39.7008683 C11.3003984,41.3159113 13.8388853,42.4055372 16.6060475,42.7734828 C16.6575474,42.7803962 16.7082787,42.7838529 16.7582414,42.7838529 C17.0145882,42.7838529 17.2490283,42.6935948 17.4496476,42.5184558 C17.6894683,42.3091339 17.8136063,42.0341349 17.8136063,41.7161193 L17.8136063,41.7161193 L17.8136063,41.2805762 C17.8136063,40.6011443 17.3289686,40.0338629 16.6579317,39.9270895 C14.6275265,39.604465 12.7566175,38.8063534 11.1616559,37.6506662 Z M93.4951064,39.3889979 L92.9335928,39.3887612 C92.1294214,39.3890081 89.6814189,39.4425638 89.6814189,40.9936708 C89.6814189,41.7391639 90.2263961,42.4412564 91.2298767,42.4412564 C92.6780249,42.4412564 93.4951064,40.9936708 93.4951064,39.7327466 L93.4951064,39.3889979 Z M129.044685,39.3889979 L128.482787,39.3887612 C127.678615,39.3890081 125.230613,39.4425638 125.230613,40.9936708 C125.230613,41.7391639 125.775206,42.4412564 126.779071,42.4412564 C128.227219,42.4412564 129.044685,40.9936708 129.044685,39.7327466 L129.044685,39.3889979 Z M159.920065,36.5656492 C158.386212,36.5656492 157.124462,37.7977676 157.124462,39.4312463 C157.124462,41.1081257 158.386212,42.3690499 159.920065,42.3690499 C161.468907,42.3690499 162.730656,41.1081257 162.730656,39.4312463 C162.730656,37.7977676 161.468907,36.5656492 159.920065,36.5656492 Z M178.605327,36.5802441 C177.400843,36.5802441 176.282833,37.439808 176.282833,39.4888579 C176.282833,40.9364434 177.085694,42.3690499 178.562667,42.3690499 C179.838636,42.3690499 180.899766,41.3089979 180.899766,39.474647 C180.899766,37.7117344 179.95355,36.5802441 178.605327,36.5802441 Z M109.613442,36.5656492 C108.079588,36.5656492 106.817839,37.7977676 106.817839,39.4312463 C106.817839,41.1081257 108.079588,42.3690499 109.613442,42.3690499 C111.162284,42.3690499 112.424033,41.1081257 112.424033,39.4312463 C112.424033,37.7977676 111.162284,36.5656492 109.613442,36.5656492 Z M69.0307028,36.5088058 C67.8262186,36.5088058 66.7796933,37.2969315 66.5502494,38.7587278 L71.066873,38.7587278 C71.0096081,37.23932 70.0918326,36.5088058 69.0307028,36.5088058 Z M18.6902586,16.4507782 C12.718569,16.4507782 7.87795688,21.2874575 7.87795688,27.2556272 C7.87795688,33.2226446 12.718569,38.059708 18.6902586,38.059708 C24.6615639,38.059708 29.5017917,33.2226446 29.5017917,27.2556272 C29.5017917,21.2874575 24.6615639,16.4507782 18.6902586,16.4507782 Z M18.6898743,16.5491019 L20.465,22.977 L26.2699769,19.6866254 L22.977,25.487 L29.4099373,27.2621565 L22.977,29.036 L26.2699769,34.8369195 L20.465,31.546 L18.6898743,37.9748271 L16.913,31.546 L11.1093873,34.8369195 L14.401,29.036 L7.96981129,27.2621565 L14.401,25.486 L11.1093873,19.6870094 L16.913,22.977 L18.6898743,16.5491019 Z M4.6557503,28.1309383 L4.21992226,28.1309383 C3.90131429,28.1309383 3.62728837,28.2553791 3.41744524,28.494659 C3.20721778,28.7350911 3.11997531,29.0227646 3.16186707,29.3380917 C3.52966904,32.1034448 4.61962346,34.6410403 6.23649167,36.7542309 C6.43019302,37.0073376 6.69614805,37.149446 7.01398736,37.1709543 C7.04012167,37.1724906 7.06664031,37.1732587 7.09239029,37.1732587 C7.37833038,37.1732587 7.63275556,37.0668695 7.83913974,36.8606202 L7.83913974,36.8606202 L8.14775518,36.5518224 C8.62778095,36.0724946 8.6873518,35.3285378 8.28841926,34.7793079 C7.13159175,33.1853892 6.33334234,31.314551 6.01012243,29.2858572 C5.90366356,28.6156432 5.33524233,28.1309383 4.6557503,28.1309383 L4.6557503,28.1309383 Z M33.1598263,28.1309383 L32.7239983,28.1309383 C32.0445062,28.1309383 31.4764693,28.6152591 31.3696261,29.2858572 C31.0471749,31.314551 30.2485411,33.1853892 29.0913293,34.7793079 C28.6927811,35.3285378 28.7519676,36.0724946 29.2319934,36.5518224 L29.2319934,36.5518224 L29.5402245,36.8606202 C29.7473773,37.0668695 30.0018025,37.1732587 30.2881269,37.1732587 C30.3138769,37.1732587 30.3400112,37.1724906 30.3665298,37.1709543 C30.6843692,37.149446 30.9495555,37.0073376 31.1436412,36.7542309 C32.7597408,34.6406562 33.8500795,32.1034448 34.2182658,29.3380917 C34.2597732,29.0227646 34.1729151,28.7339389 33.9626876,28.494659 C33.7528445,28.2553791 33.4788186,28.1309383 33.1598263,28.1309383 L33.1598263,28.1309383 Z M103.64867,32.9975756 L103.64867,34.2158673 L102.544495,34.2158673 L102.544495,32.9975756 L103.64867,32.9975756 Z M112.215727,9.95219846 L112.215727,11.9893419 L109.859412,11.9893419 L109.859412,21.6458012 C109.859412,22.8625566 110.097695,23.9203041 110.574262,24.6880737 C111.342149,25.904829 112.797984,26.5927106 114.598177,26.5927106 C116.371851,26.5927106 117.854588,25.904829 118.622092,24.6354551 C119.07214,23.8676856 119.336558,22.8360553 119.336558,21.6192999 L119.336558,11.9893419 L116.980626,11.9893419 L116.980626,9.95219846 L124.313606,9.95219846 L124.313606,11.9893419 L121.983809,11.9893419 L121.983809,21.6719184 C121.983809,23.444817 121.507627,25.0583237 120.686702,26.2224606 C119.416113,28.0214764 117.139354,28.9471015 114.598177,28.9471015 C111.950925,28.9471015 109.727203,27.9419725 108.456614,26.2224606 C107.582652,25.0318224 107.21216,23.4713183 107.21216,21.6719184 L107.21216,11.9893419 L104.856229,11.9893419 L104.856229,9.95219846 L112.215727,9.95219846 Z M195.71715,9.63456694 C197.967391,9.63456694 202.838365,10.454955 202.838365,13.3386038 L202.838365,15.6134907 L200.37636,15.6134907 L200.37636,14.1586078 C200.37636,12.5182157 197.543862,11.909838 195.822841,11.909838 C191.825444,11.909838 188.886872,14.8464893 188.886872,19.0793999 C188.886872,23.4974355 191.905,26.6457132 195.981952,26.6457132 C197.305578,26.6457132 200.641162,26.169458 200.641162,24.449946 L200.641162,22.994679 L203.103167,22.994679 L203.103167,25.269566 C203.103167,28.0214764 198.417439,28.9471015 195.822841,28.9471015 C190.210882,28.9471015 186.160449,24.6350711 186.160449,19.184637 C186.160449,13.7088538 190.316572,9.63456694 195.71715,9.63456694 Z M219.491301,9.95219846 L219.491301,14.2911143 L217.188023,14.2911143 L217.188023,12.1218484 L210.940385,12.1218484 L210.940385,18.1268894 L217.558515,18.1268894 L217.558515,20.2961553 L210.940385,20.2961553 L210.940385,26.4602041 L217.638071,26.4602041 L217.638071,24.2114343 L219.941349,24.2114343 L219.941349,28.62947 L205.963721,28.62947 L205.963721,26.5662093 L208.293134,26.5662093 L208.293134,11.9893419 L205.963721,11.9893419 L205.963721,9.95219846 L219.491301,9.95219846 Z M67.7113045,9.95219846 L76.8975142,23.3388118 C77.2149692,23.8676856 77.5328085,24.6880737 77.5328085,24.6880737 L77.6119801,24.6880737 C77.6119801,24.6880737 77.4797712,23.7616804 77.4797712,23.179804 L77.4797712,11.9893419 L75.0969371,11.9893419 L75.0969371,9.95219846 L82.4829541,9.95219846 L82.4829541,11.9893419 L80.127023,11.9893419 L80.127023,28.62947 L77.5328085,28.62947 L68.3465988,15.2432407 C68.0943515,14.8551183 67.8704198,14.310639 67.7689271,14.0478499 L67.7262759,13.9350795 C67.7164836,13.9085567 67.7113045,13.8939788 67.7113045,13.8939788 L67.6317486,13.8939788 C67.6317486,13.8939788 67.7639575,14.8203721 67.7378232,15.4018644 L67.7378232,26.5662093 L70.1467915,26.5662093 L70.1467915,28.62947 L62.7607746,28.62947 L62.7607746,26.5662093 L65.0901871,26.5662093 L65.0901871,11.9893419 L62.7607746,11.9893419 L62.7607746,9.95219846 L67.7113045,9.95219846 Z M134.639733,9.95181439 C135.963743,9.95181439 137.049085,10.0044329 138.081391,10.3485657 C140.040311,11.009946 141.337418,12.6503381 141.337418,15.1902381 C141.337418,17.8887618 139.855065,19.8195159 137.472615,20.4282777 L137.472615,20.4812803 C137.472615,20.4812803 137.948798,20.7459092 138.266637,21.3539028 L140.913889,25.9570635 C141.204825,26.45982 141.549567,26.5658252 142.21138,26.5658252 L142.767119,26.5658252 L142.767119,28.62947 L141.178691,28.62947 C139.590647,28.62947 139.219386,28.3387238 138.584476,27.2275896 L135.698557,22.1216724 C135.222374,21.3277856 134.878401,21.0900421 133.740021,21.0900421 L131.515914,21.0900421 L131.515914,26.5658252 L133.819577,26.5658252 L133.819577,28.62947 L126.53925,28.62947 L126.53925,26.5658252 L128.868662,26.5658252 L128.868662,11.9889578 L126.53925,11.9889578 L126.53925,9.95181439 L134.639733,9.95181439 Z M169.162771,9.95219846 L178.34898,23.3388118 C178.666435,23.8676856 178.984275,24.6880737 178.984275,24.6880737 L179.063831,24.6880737 C179.063831,24.6880737 178.931237,23.7616804 178.931237,23.179804 L178.931237,11.9893419 L176.548788,11.9893419 L176.548788,9.95219846 L183.934805,9.95219846 L183.934805,11.9893419 L181.578874,11.9893419 L181.578874,28.62947 L178.984275,28.62947 L169.798449,15.2432407 C169.454091,14.7139828 169.162771,13.8939788 169.162771,13.8939788 L169.083599,13.8939788 C169.083599,13.8939788 169.215808,14.8203721 169.189289,15.4018644 L169.189289,26.5662093 L171.598642,26.5662093 L171.598642,28.62947 L164.212625,28.62947 L164.212625,26.5662093 L166.542038,26.5662093 L166.542038,11.9893419 L164.212625,11.9893419 L164.212625,9.95219846 L169.162771,9.95219846 Z M154.76046,9.95219846 L160.716777,26.5662093 L162.51697,26.5662093 L162.51697,28.62947 L156.031049,28.62947 L156.031049,26.5662093 L158.016488,26.5662093 L156.560653,22.4128026 L149.942139,22.4128026 L148.486305,26.5662093 L150.498262,26.5662093 L150.498262,28.62947 L144.012342,28.62947 L144.012342,26.5662093 L145.812534,26.5662093 L151.768851,9.95219846 L154.76046,9.95219846 Z M59.5562471,9.95219846 L59.5562471,14.2911143 L57.2533533,14.2911143 L57.2533533,12.1218484 L51.0057161,12.1218484 L51.0057161,18.1268894 L57.6238456,18.1268894 L57.6238456,20.2961553 L51.0057161,20.2961553 L51.0057161,26.4602041 L57.7034015,26.4602041 L57.7034015,24.2114343 L60.0062953,24.2114343 L60.0062953,28.62947 L46.0286675,28.62947 L46.0286675,26.5662093 L48.35808,26.5662093 L48.35808,11.9893419 L46.0286675,11.9893419 L46.0286675,9.95219846 L59.5562471,9.95219846 Z M92.9151553,9.95219846 C94.4770646,9.95219846 95.641963,10.0317024 96.8864173,10.4019524 C100.4599,11.5127026 102.789697,14.7404841 102.789697,19.2910263 C102.789697,23.8150671 100.539456,26.9629607 96.8864173,28.1267134 C95.6684817,28.5242329 94.4244117,28.629854 92.941674,28.629854 L84.9468814,28.629854 L84.9468814,26.5662093 L87.2766782,26.5662093 L87.2766782,11.9889578 L84.9468814,11.9889578 L84.9468814,9.95219846 L92.9151553,9.95219846 Z M92.7829465,12.1218484 L89.9239299,12.1218484 L89.9239299,26.4602041 L92.7829465,26.4602041 C94.0008822,26.4602041 95.0066687,26.3549671 95.9598024,25.984717 C98.474461,25.1109422 100.03637,22.7035488 100.03637,19.2910263 C100.03637,15.8520024 98.474461,13.444609 95.986321,12.544717 C94.9536315,12.1744669 94.0008822,12.1218484 92.7829465,12.1218484 Z M7.14831955,17.3390281 L7.01437169,17.3403001 C6.69614805,17.3610402 6.43019302,17.5035327 6.23649167,17.7570234 C4.62039211,19.8702141 3.52966904,22.4070415 3.16186707,25.1727786 C3.11997531,25.4881057 3.20721778,25.7761633 3.41744524,26.0162113 C3.62728837,26.2551071 3.90131429,26.379548 4.21992226,26.379548 L4.21992226,26.379548 L4.6557503,26.379548 C5.33524233,26.379548 5.90366356,25.8952271 6.01012243,25.224629 C6.33334234,23.1955512 7.13159175,21.3254811 8.28841926,19.7315624 C8.6873518,19.1823325 8.62778095,18.4383757 8.14775518,17.9582797 L8.14775518,17.9582797 L7.8399084,17.6506342 C7.61392349,17.4255652 7.33221101,17.3191759 7.01437169,17.3403001 Z M30.3665298,17.339916 C30.0479219,17.3191759 29.7662094,17.424797 29.5402245,17.6506342 L29.5402245,17.6506342 L29.2319934,17.9582797 C28.7519676,18.4387598 28.6927811,19.1823325 29.0913293,19.7315624 C30.2485411,21.3254811 31.0471749,23.1955512 31.3696261,25.224629 C31.4764693,25.8952271 32.0445062,26.379548 32.7239983,26.379548 L32.7239983,26.379548 L33.1598263,26.379548 C33.4788186,26.379548 33.7528445,26.2551071 33.9626876,26.0162113 C34.1729151,25.7761633 34.2597732,25.4881057 34.2182658,25.1727786 C33.8500795,22.4070415 32.7601251,19.86983 31.1436412,17.7566394 C30.9499399,17.5035327 30.6843692,17.3610402 30.3665298,17.339916 Z M153.304241,12.3857092 L153.22507,12.3857092 C153.22507,12.3857092 153.145514,13.0470894 152.907231,13.814859 L150.603952,20.2961553 L155.89884,20.2961553 L153.622081,13.814859 C153.357279,13.0470894 153.304241,12.3857092 153.304241,12.3857092 Z M134.613598,12.1214643 L131.515914,12.1214643 L131.515914,18.9203921 L135.275411,18.9203921 C137.313503,18.9203921 138.664032,17.5976316 138.664032,15.4014803 C138.664032,13.9469814 138.081391,12.9418524 136.916108,12.4652131 C136.307332,12.2267014 135.513695,12.1214643 134.613598,12.1214643 Z M20.7744698,11.7373875 C20.4589364,11.6955231 20.1699217,11.7823245 19.9304853,11.9924145 C19.6902803,12.2021205 19.5661423,12.4763513 19.5661423,12.794751 L19.5661423,12.794751 L19.5661423,13.2306782 C19.5661423,13.909726 20.0511643,14.4773915 20.7218168,14.5837808 C22.752222,14.9060212 24.6235154,15.7045169 26.2188613,16.8602041 C26.4625253,17.0368794 26.7446221,17.1236808 27.0247972,17.1236808 C27.3768417,17.1236808 27.7258116,16.9869494 27.9929197,16.720016 L27.9929197,16.720016 L28.3011508,16.4119864 C28.5267513,16.1865333 28.6328259,15.9053891 28.6120722,15.5869894 C28.5905498,15.2689738 28.4475798,15.0035768 28.1950762,14.810002 C26.0797345,13.194959 23.5412476,12.104949 20.7744698,11.7373875 Z M16.7395438,11.7273074 L16.6060475,11.7373875 C13.8388853,12.104949 11.3000141,13.1945749 9.18505666,14.810002 C8.93178446,15.0035768 8.78919874,15.2693579 8.76844503,15.5869894 C8.74692265,15.9053891 8.8529972,16.1865333 9.07898211,16.4119864 L9.07898211,16.4119864 L9.38721323,16.720016 C9.65432124,16.9869494 10.0032911,17.1236808 10.3553356,17.1236808 C10.6355108,17.1236808 10.9176076,17.0368794 11.1616559,16.8602041 C12.7566175,15.704901 14.6275265,14.9060212 16.6579317,14.5837808 C17.3285842,14.4773915 17.8136063,13.909726 17.8136063,13.2306782 L17.8136063,13.2306782 L17.8136063,12.794751 C17.8136063,12.4763513 17.6894683,12.2021205 17.4496476,11.9924145 C17.2098269,11.7823245 16.9215808,11.6955231 16.6060475,11.7373875 Z M18.6902586,1.71605522 C17.1441068,1.71605522 15.8908129,2.96852971 15.8908129,4.51328667 C15.8908129,5.27529507 16.1959694,5.96586519 16.6902153,6.47015805 C17.0368792,5.72159233 17.7963115,5.19924786 18.6729638,5.19924786 L18.6729638,5.19924786 L18.684878,5.19924786 C19.5665266,5.19924786 20.3309552,5.72888979 20.6741601,6.4859052 C21.1780142,5.98007603 21.4885513,5.28259253 21.4885513,4.51328667 C21.4885513,2.96852971 20.2356418,1.71605522 18.6902586,1.71605522 Z" id="Combined-Shape"></path>
                        </g>
                    </g>
                </g>
            </g>
        </g>
    </g>
</svg>