<?xml version="1.0" encoding="UTF-8"?>
<svg width="221px" height="30px" viewBox="0 0 221 30" version="1.1" xmlns="http://www.w3.org/2000/svg" xmlns:xlink="http://www.w3.org/1999/xlink">
    <title>sitebuilder</title>
    <defs>
        <polygon id="path-1" points="3.07160061e-16 19.4461517 3.07160061e-16 6.64010687e-16 12.273862 6.64010687e-16 12.273862 19.4461517"></polygon>
        <polygon id="path-3" points="-8.85347583e-17 -3.09871654e-16 2.27864361 -3.09871654e-16 2.27864361 19.498198 -8.85347583e-17 19.498198"></polygon>
        <polygon id="path-5" points="-2.21336896e-17 -3.09871654e-16 2.27864361 -3.09871654e-16 2.27864361 19.498198 -2.21336896e-17 19.498198"></polygon>
    </defs>
    <g id="Page-1" stroke="none" stroke-width="1" fill="none" fill-rule="evenodd">
        <g id="Desktop-HD" transform="translate(-631.000000, -1934.000000)">
            <g id="Brands" transform="translate(0.000000, 1645.000000)">
                <g id="Group-6" transform="translate(478.000000, 60.000000)">
                    <g id="Group-4" transform="translate(0.000000, 120.000000)">
                        <g id="Group-3" transform="translate(153.958944, 105.571848)">
                            <g id="sitebuilder" transform="translate(0.000000, 4.398827)">
                                <g id="Fill-1-Clipped" transform="translate(0.000000, 0.103737)">
                                    <mask id="mask-2" fill="white">
                                        <use xlink:href="#path-1"></use>
                                    </mask>
                                    <g id="path-1"></g>
                                    <path d="M5.298429,7.97848935 C3.84385167,7.82539294 2.27857888,6.93270845 2.27857888,5.33377387 C2.27857888,3.58239026 3.71697265,2.26051803 5.62760237,2.25274993 C6.94429587,2.32719426 7.89718319,2.71171536 8.8105827,3.53545797 C8.95493993,3.66589738 9.15043716,3.72415815 9.3426977,3.69502776 C9.53495832,3.66557371 9.70359089,3.55099418 9.80231052,3.38333262 L10.320184,2.50294759 C10.4729567,2.2430398 10.4260245,1.91224807 10.2072229,1.70477498 C9.09703144,0.653168015 7.33885077,6.64010687e-16 5.61918692,6.64010687e-16 C2.46825006,6.64010687e-16 -6.47341934e-05,2.34273046 -6.47341934e-05,5.33377387 C-6.47341934e-05,7.97169228 1.77721254,9.7055976 5.0051831,10.2169977 C5.15439541,10.2496885 5.34762699,10.2742875 5.58876185,10.3047126 C7.86384508,10.5924561 9.96932474,11.1964261 9.96932474,13.645968 C9.96932474,15.7349404 8.51053967,17.1937255 6.42189093,17.1937255 C6.39017117,17.1937255 3.2113986,17.1694501 1.86460371,15.0817724 C1.75067153,14.9047244 1.55711629,14.7946763 1.34705383,14.7859371 C1.13602036,14.7810821 0.935020689,14.87171 0.806846987,15.0387242 L0.211292407,15.8158582 C0.0420124915,16.0369254 0.0329497044,16.3418235 0.188959111,16.5726008 C2.09279174,19.3859489 6.24192987,19.4451807 6.43904548,19.4461517 C9.76541202,19.3584368 12.273862,16.9205472 12.273862,13.7754363 C12.273862,11.4553629 11.0633326,8.56627578 5.298429,7.97848935" id="Fill-1" fill="#000000" fill-rule="nonzero" mask="url(#mask-2)"></path>
                                </g>
                                <g id="Fill-4-Clipped" transform="translate(15.186350, 0.000000)">
                                    <mask id="mask-4" fill="white">
                                        <use xlink:href="#path-3"></use>
                                    </mask>
                                    <g id="path-3"></g>
                                    <path d="M1.63130167,-6.47338182e-05 L0.647341937,-6.47338182e-05 C0.289685515,-6.47338182e-05 -8.85347583e-17,0.289944453 -8.85347583e-17,0.647277197 L-8.85347583e-17,18.850856 C-8.85347583e-17,19.2085125 0.289685515,19.498198 0.647341937,19.498198 L1.63130167,19.498198 C1.98863442,19.498198 2.27864361,19.2085125 2.27864361,18.850856 L2.27864361,0.647277197 C2.27864361,0.289944453 1.98863442,-6.47338182e-05 1.63130167,-6.47338182e-05" id="Fill-4" fill="#000000" fill-rule="nonzero" mask="url(#mask-4)"></path>
                                </g>
                                <path d="M35.3968188,0.129209497 L20.9219295,0.129209497 C20.5645967,0.129209497 20.2745875,0.419218683 20.2745875,0.776551428 L20.2745875,1.81229852 C20.2745875,2.16995494 20.5645967,2.45964046 20.9219295,2.45964046 L27.0069437,2.45964046 L27.0069437,19.006024 C27.0069437,19.3636804 27.2969529,19.6533659 27.6542856,19.6533659 L28.664139,19.6533659 C29.0217954,19.6533659 29.3114809,19.3636804 29.3114809,19.006024 L29.3114809,2.45964046 L35.3968188,2.45964046 C35.7541516,2.45964046 36.0441608,2.16995494 36.0441608,1.81229852 L36.0441608,0.776551428 C36.0441608,0.419218683 35.7541516,0.129209497 35.3968188,0.129209497" id="Fill-7" fill="#000000" fill-rule="nonzero"></path>
                                <path d="M49.8066503,0.206987631 L39.500643,0.206987631 C39.1433103,0.206987631 38.8533011,0.49699682 38.8533011,0.854329562 L38.8533011,18.9287637 C38.8533011,19.2860965 39.1433103,19.5761057 39.500643,19.5761057 L49.5736072,19.5761057 C49.9312636,19.5761057 50.2209491,19.2860965 50.2209491,18.9287637 L50.2209491,17.8930166 C50.2209491,17.5353602 49.9312636,17.2456747 49.5736072,17.2456747 L41.183732,17.2456747 L41.183732,11.2639116 L47.6056877,11.2639116 C47.9633441,11.2639116 48.2530296,10.974226 48.2530296,10.6165696 L48.2530296,9.60671616 C48.2530296,9.24938343 47.9633441,8.95937423 47.6056877,8.95937423 L41.183732,8.95937423 L41.183732,2.48563124 L49.8066503,2.48563124 C50.163983,2.48563124 50.4539922,2.19594573 50.4539922,1.83828931 L50.4539922,0.854329562 C50.4539922,0.49699682 50.163983,0.206987631 49.8066503,0.206987631" id="Fill-9" fill="#000000" fill-rule="nonzero"></path>
                                <path d="M59.6849264,8.82977637 L55.5416143,8.82977637 L55.5416143,2.5376128 L59.6849264,2.5376128 C61.4563775,2.5376128 62.8442786,3.92519024 62.8442786,5.69664143 C62.8442786,7.45352744 61.4563775,8.82977637 59.6849264,8.82977637 M61.0055039,17.2196515 L55.5416143,17.2196515 L55.5416143,11.1861011 L60.9278228,11.1861011 C62.6533127,11.1861011 63.9055958,12.438384 63.9055958,14.1638739 C63.9055958,15.9343541 62.6860036,17.2196515 61.0055039,17.2196515 M63.744084,9.61953358 L63.6181759,9.54476553 L63.72434,9.43439379 C63.7327555,9.42565462 63.7408472,9.41659183 63.748939,9.40752905 C64.6814351,8.32452604 65.174386,7.0414943 65.174386,5.69664143 C65.174386,2.69912461 62.7381146,0.23631222 59.7367137,0.206858162 L53.8588489,0.206858162 C53.5015162,0.206858162 53.211507,0.496867346 53.211507,0.854200096 L53.211507,18.8768469 C53.211507,19.2345033 53.5015162,19.5241889 53.8588489,19.5241889 L60.9796102,19.5241889 L60.9860836,19.5241889 C63.9094798,19.4944111 66.2878141,17.0901832 66.2878141,14.1638739 C66.2878141,12.2917611 65.3397818,10.5947542 63.744084,9.61953358" id="Fill-11" fill="#000000" fill-rule="nonzero"></path>
                                <path d="M82.0314933,0.0776810794 L80.9442831,0.0776810794 C80.5866267,0.0776810794 80.296941,0.367690266 80.296941,0.725023011 L80.296941,12.5846509 C80.296941,15.0973086 78.2406592,17.1419381 75.7131126,17.1419381 C73.1858897,17.1419381 71.1299318,15.0856565 71.1299318,12.5587572 L71.1299318,0.725023011 C71.1299318,0.367690266 70.8402462,0.0776810794 70.4825898,0.0776810794 L69.3691617,0.0776810794 C69.0115053,0.0776810794 68.7218198,0.367690266 68.7218198,0.725023011 L68.7224671,12.5040568 C68.6447861,14.2560878 69.3044275,15.9553603 70.5800148,17.2888847 C71.9387855,18.709153 73.8099274,19.5241565 75.7131126,19.5241565 C79.5346957,19.5241565 82.5940338,16.4363354 82.6788354,12.4807526 L82.6788354,0.725023011 C82.6788354,0.367690266 82.3888267,0.0776810794 82.0314933,0.0776810794" id="Fill-13" fill="#000000" fill-rule="nonzero"></path>
                                <g id="Fill-15-Clipped" transform="translate(85.915254, 0.000000)">
                                    <mask id="mask-6" fill="white">
                                        <use xlink:href="#path-5"></use>
                                    </mask>
                                    <g id="path-5"></g>
                                    <path d="M1.63130167,-6.47338182e-05 L0.647341934,-6.47338182e-05 C0.289685515,-6.47338182e-05 -2.21336896e-17,0.289944453 -2.21336896e-17,0.647277197 L-2.21336896e-17,18.850856 C-2.21336896e-17,19.2085125 0.289685515,19.498198 0.647341934,19.498198 L1.63130167,19.498198 C1.98863442,19.498198 2.27864361,19.2085125 2.27864361,18.850856 L2.27864361,0.647277197 C2.27864361,0.289944453 1.98863442,-6.47338182e-05 1.63130167,-6.47338182e-05" id="Fill-15" fill="#000000" fill-rule="nonzero" mask="url(#mask-6)"></path>
                                </g>
                                <path d="M101.477354,17.2455452 L93.7866079,17.2455452 L93.7866079,0.776519068 C93.7866079,0.419186316 93.496923,0.12917713 93.1392665,0.12917713 L92.0002684,0.12917713 C91.642612,0.12917713 91.3529262,0.419186316 91.3529262,0.776519068 L91.3529262,18.9286342 C91.3529262,19.2862906 91.642612,19.5759762 92.0002684,19.5759762 L101.477354,19.5759762 C101.834687,19.5759762 102.124696,19.2862906 102.124696,18.9286342 L102.124696,17.8928872 C102.124696,17.5355544 101.834687,17.2455452 101.477354,17.2455452" id="Fill-18" fill="#000000" fill-rule="nonzero"></path>
                                <path d="M107.263458,17.2196192 L107.23983,2.48579307 L109.879691,2.48579307 C113.823945,2.48579307 117.155814,5.82963783 117.155814,9.78781009 C117.155814,13.816219 113.823945,17.2196192 109.879691,17.2196192 L107.263458,17.2196192 Z M110.009483,0.103574757 L105.529553,0.103574757 C105.17222,0.103574757 104.88221,0.393583943 104.88221,0.750916689 L104.88221,18.8768146 C104.88221,19.234471 105.17222,19.5241565 105.529553,19.5241565 L110.009483,19.5241565 L110.016279,19.5241565 C115.295029,19.4684851 119.590143,15.100869 119.590143,9.78781009 C119.590143,4.53106991 115.296648,0.186758195 110.009483,0.103574757 L110.009483,0.103574757 Z" id="Fill-20" fill="#000000" fill-rule="nonzero"></path>
                                <path d="M133.378397,0.206987631 L123.072389,0.206987631 C122.715057,0.206987631 122.425047,0.49699682 122.425047,0.854329562 L122.425047,18.9287637 C122.425047,19.2860965 122.715057,19.5761057 123.072389,19.5761057 L133.145354,19.5761057 C133.50301,19.5761057 133.792696,19.2860965 133.792696,18.9287637 L133.792696,17.8930166 C133.792696,17.5353602 133.50301,17.2456747 133.145354,17.2456747 L124.755478,17.2456747 L124.755478,11.2639116 L131.177434,11.2639116 C131.535091,11.2639116 131.824776,10.974226 131.824776,10.6165696 L131.824776,9.60671616 C131.824776,9.24938343 131.535091,8.95937423 131.177434,8.95937423 L124.755478,8.95937423 L124.755478,2.48563124 L133.378397,2.48563124 C133.735729,2.48563124 134.025739,2.19594573 134.025739,1.83828931 L134.025739,0.854329562 C134.025739,0.49699682 133.735729,0.206987631 133.378397,0.206987631" id="Fill-22" fill="#000000" fill-rule="nonzero"></path>
                                <path d="M139.088147,2.33043101 L142.117707,2.33043101 C144.402177,2.33043101 146.260695,4.1889497 146.260695,6.47341939 C146.260695,8.75788911 144.402177,10.6167314 142.117707,10.6167314 L139.088147,10.6167314 L139.088147,2.33043101 Z M148.585948,18.6887617 L145.527581,11.8978212 L145.629861,11.8321159 C147.435297,10.657514 148.513446,8.65366699 148.513446,6.47341939 C148.513446,3.00431396 145.695566,0.135294511 142.221282,0.0776810794 L137.456845,0.0776810794 C137.099189,0.0776810794 136.809504,0.367690266 136.809504,0.725023011 L136.809504,18.9544955 C136.809504,19.312152 137.099189,19.6018375 137.456845,19.6018375 L138.440805,19.6018375 C138.798138,19.6018375 139.088147,19.312152 139.088147,18.9544955 L139.088147,12.8908436 L142.223548,12.8694814 C142.438465,12.8694814 142.868947,12.8691577 143.404946,12.7688197 L146.317986,19.2212004 C146.422531,19.4526252 146.653633,19.6018375 146.908037,19.6018375 L147.995896,19.6018375 C148.215345,19.6018375 148.419905,19.4904947 148.539339,19.3060023 C148.65845,19.1215098 148.676252,18.889114 148.585948,18.6887617 L148.585948,18.6887617 Z" id="Fill-24" fill="#000000" fill-rule="nonzero"></path>
                                <path d="M175.94744,2.07172081 L175.40335,3.08125055 C174.18667,2.3047639 172.762195,1.94225242 171.286578,1.94225242 C166.962011,1.94225242 163.311002,5.56736725 163.311002,9.89161139 C163.311002,14.2161792 166.962011,17.841294 171.286578,17.841294 C172.762195,17.841294 174.212564,17.4269951 175.455137,16.6505085 L175.973334,17.6859319 C174.549182,18.5404233 172.943774,18.9809395 171.286578,18.9809395 C166.288775,18.9809395 162.197574,14.9153085 162.197574,9.89161139 C162.197574,4.86823796 166.288775,0.776713271 171.286578,0.776713271 C172.943774,0.776713271 174.549182,1.24279946 175.94744,2.07172081" id="Fill-26" fill="#000000" fill-rule="nonzero"></path>
                                <path d="M194.280391,9.78797189 C194.280391,5.46372781 190.758851,1.81239563 186.564075,1.81239563 C182.394869,1.81239563 178.847435,5.46372781 178.847435,9.78797189 C178.847435,14.1381098 182.394869,17.7894419 186.564075,17.7894419 C190.758851,17.7894419 194.280391,14.1381098 194.280391,9.78797189 M195.238781,9.78797189 C195.238781,14.7854517 191.354405,18.8773 186.564075,18.8773 C181.773421,18.8773 177.88937,14.7854517 177.88937,9.78797189 C177.88937,4.7904922 181.773421,0.725184845 186.564075,0.725184845 C191.354405,0.725184845 195.238781,4.7904922 195.238781,9.78797189" id="Fill-28" fill="#000000" fill-rule="nonzero"></path>
                                <polygon id="Fill-30" fill="#000000" fill-rule="nonzero" points="208.858855 17.4528888 202.100282 1.94225242 198.78589 18.8770411 197.750144 18.8770411 201.24579 0.595457527 202.669942 0.621674875 208.858855 14.8117337 214.995656 0.621674875 216.419809 0.595457527 219.941349 18.8770411 218.905602 18.8770411 215.617104 1.94225242"></polygon>
                                <polygon id="Fill-32" fill="#000000" fill-rule="nonzero" points="163.171921 23.2912981 154.599819 14.6017037 155.409968 26.7811185 158.115856 24.41476 160.16081 28.9633081 161.741619 28.2525267 159.699255 23.7098047"></polygon>
                            </g>
                        </g>
                    </g>
                </g>
            </g>
        </g>
    </g>
</svg>