<?xml version="1.0" encoding="UTF-8"?>
<svg width="221px" height="36px" viewBox="0 0 221 36" version="1.1" xmlns="http://www.w3.org/2000/svg" xmlns:xlink="http://www.w3.org/1999/xlink">
    <title>websitebuilder</title>
    <g id="Page-1" stroke="none" stroke-width="1" fill="none" fill-rule="evenodd">
        <g id="Desktop-HD" transform="translate(-910.000000, -1930.000000)">
            <g id="Brands" transform="translate(0.000000, 1645.000000)">
                <g id="Group-6" transform="translate(478.000000, 60.000000)">
                    <g id="Group-4" transform="translate(0.000000, 120.000000)">
                        <g id="Group-3" transform="translate(153.958944, 105.571848)">
                            <g id="websitebuilder" transform="translate(278.592375, 0.000000)">
                                <g id="Group" transform="translate(43.980451, 7.330075)" fill="#000000" fill-rule="nonzero" stroke="#FFFFFF" stroke-width="0.56">
                                    <g>
                                        <g id="lt_ambientbold_87-link" transform="translate(0.000000, 0.383119)">
                                            <polygon id="lt_ambientbold_87" points="21.5230554 15.2700126 25.9973333 0 29.6369599 0 23.6712561 19.7579733 19.498 19.7579733 14.7500659 5.14473543 10.5357614 19.7579733 6.36250525 19.7579733 0 0 3.69435789 0 8.4149263 15.2289642 12.7797417 0 16.6382933 0"></polygon>
                                        </g>
                                        <g id="lt_ambientbold_101-link" transform="translate(30.389514, 6.321457)">
                                            <path d="M6.60879578,0 C7.83112654,0 8.9184536,0.291899883 9.87077696,0.875699648 C10.8249247,1.45949941 11.5665328,2.28502877 12.0956014,3.35228771 L12.0956014,3.35228771 C12.6246699,4.3739373 12.8892042,5.57346338 12.8892042,6.95086595 L12.8892042,6.95086595 C12.8892042,7.41608139 12.8618386,7.83568747 12.8071073,8.2096842 L12.8071073,8.2096842 L3.37965333,8.2096842 C3.56209075,9.10362759 3.96801403,9.80145074 4.59742315,10.3031537 C5.22683227,10.8048566 6.01131321,11.0557081 6.95086595,11.0557081 L6.95086595,11.0557081 C7.60764069,11.0557081 8.2662398,10.9307384 8.92666328,10.6807991 C9.58891114,10.4290355 10.1845693,10.0751069 10.7136379,9.61901332 L10.7136379,9.61901332 L12.3418919,11.9450905 C11.6030203,12.6109871 10.777491,13.1081291 9.86530384,13.4365165 C8.95311671,13.7649038 7.92690618,13.9290975 6.78667227,13.9290975 L6.78667227,13.9290975 C5.48224467,13.9290975 4.31190858,13.6371976 3.27566399,13.0533979 C2.24124379,12.4695981 1.4321338,11.6440688 0.848334034,10.5768098 L0.848334034,10.5768098 C0.282778011,9.51867273 -3.88888765e-15,8.31458572 -3.88888765e-15,6.96454876 L-3.88888765e-15,6.96454876 C-3.88888765e-15,5.62363367 0.275480514,4.42228322 0.826441542,3.3604974 C1.37922694,2.2968872 2.15732257,1.47318222 3.16072842,0.889382455 L3.16072842,0.889382455 C4.16413426,0.296460818 5.31349005,0 6.60879578,0 L6.60879578,0 Z M6.41723648,2.90075508 C5.56890245,2.90075508 4.87564023,3.13609936 4.33744982,3.60678792 C3.79925941,4.07565211 3.43894549,4.7570559 3.25650806,5.65099929 L3.25650806,5.65099929 L9.42745402,5.65099929 C9.25413846,4.76617777 8.90750735,4.08659836 8.38756069,3.61226105 C7.86761402,3.13792374 7.21083929,2.90075508 6.41723648,2.90075508 L6.41723648,2.90075508 Z" id="lt_ambientbold_101"></path>
                                        </g>
                                        <g id="lt_ambientbold_98-link" transform="translate(44.510171, 0.164194)">
                                            <path d="M6.96454876,6.23935999 C8.18687952,6.23935999 9.30430876,6.53855737 10.3168365,7.13695213 C11.3293642,7.73352251 12.122967,8.56543718 12.6976449,9.63269612 L12.6976449,9.63269612 C13.2632009,10.6908332 13.5459789,11.8629937 13.5459789,13.1491775 L13.5459789,13.1491775 C13.5459789,14.4262395 13.2632009,15.593839 12.6976449,16.6519761 C12.1320889,17.7101132 11.343047,18.5402035 10.3305193,19.142247 L10.3305193,19.142247 C9.3362353,19.7534124 8.21424513,20.0589951 6.96454876,20.0589951 L6.96454876,20.0589951 C6.20743344,20.0589951 5.51143466,19.9312889 4.87655241,19.6758765 C4.24349454,19.4204641 3.68523602,19.0464673 3.20177684,18.5538863 L3.20177684,18.5538863 L3.20177684,20.0042638 L0,20.0042638 L0,0 L3.20177684,1.35459789 L3.20177684,7.74446876 C3.68523602,7.25188771 4.24349454,6.87789098 4.87655241,6.62247858 C5.51143466,6.36706619 6.20743344,6.23935999 6.96454876,6.23935999 L6.96454876,6.23935999 Z M6.77298946,9.27694314 C6.07972724,9.27694314 5.45670343,9.44113682 4.90391803,9.76952419 C4.352957,10.0979116 3.92240467,10.5540051 3.61226105,11.1378049 L3.61226105,11.1378049 C3.30211742,11.7216047 3.14704561,12.3920622 3.14704561,13.1491775 L3.14704561,13.1491775 C3.14704561,13.897171 3.29938086,14.5630676 3.60405136,15.1468673 C3.91054624,15.7306671 4.34657169,16.1867607 4.91212771,16.515148 L4.91212771,16.515148 L4.91212771,16.5288308 C5.45031812,16.8572182 6.07060537,17.0214119 6.77298946,17.0214119 L6.77298946,17.0214119 C7.46625168,17.0214119 8.09109987,16.8599548 8.64753402,16.5370405 C9.20396817,16.2123019 9.63725706,15.7534718 9.94740068,15.1605501 L9.94740068,15.1605501 C10.2575443,14.5767504 10.4126161,13.9062928 10.4126161,13.1491775 L10.4126161,13.1491775 C10.4126161,12.4011841 10.2593687,11.7352875 9.95287381,11.1514877 C9.6482033,10.5676879 9.21765098,10.1070334 8.66121683,9.76952419 L8.66121683,9.76952419 C8.10478268,9.44113682 7.47537355,9.27694314 6.77298946,9.27694314 L6.77298946,9.27694314 Z" id="lt_ambientbold_98"></path>
                                        </g>
                                        <g id="lt_ambientbold_115-link" transform="translate(58.877118, 6.362505)">
                                            <path d="M0.13682807,10.0294975 L0.205242105,9.90635226 L0.711505964,9.783207 C1.27706199,10.211935 1.89461267,10.5266395 2.56415803,10.7273207 C3.23552776,10.9280019 4.00906245,11.0283424 4.8847621,11.0283424 L4.8847621,11.0283424 C5.46856186,11.0283424 5.98394759,10.9717868 6.43091929,10.8586756 C6.87789098,10.7437401 7.22452209,10.5859317 7.47081262,10.3852505 C7.71710314,10.1845693 7.84024841,9.96108349 7.84024841,9.71479296 L7.84024841,9.71479296 C7.84024841,9.09450571 7.16066899,8.6840215 5.80151016,8.48334034 L5.80151016,8.48334034 L4.46059508,8.27809823 C3.01021754,8.05005145 1.90373455,7.59669444 1.1411461,6.91802722 C0.380382034,6.23753561 0,5.35909941 0,4.28271859 L0,4.28271859 C0,3.44350643 0.2481149,2.6936886 0.7443447,2.03326512 C1.24239887,1.37101726 1.94751953,0.862016841 2.85970666,0.506263859 L2.85970666,0.506263859 C3.73540631,0.16875462 4.71144654,0 5.78782736,0 L5.78782736,0 C7.4297642,0 8.90750735,0.296460818 10.2210568,0.889382455 L10.2210568,0.889382455 L10.1663256,4.20062175 C9.57340396,3.79925941 8.88196611,3.47543298 8.09201206,3.22914245 C7.30388237,2.98285192 6.56774736,2.85970666 5.88360701,2.85970666 L5.88360701,2.85970666 C5.39102596,2.85970666 4.9486152,2.91899883 4.55637473,3.03758315 C4.16413426,3.15616748 3.8494297,3.32036116 3.61226105,3.5301642 L3.61226105,3.5301642 L3.62594385,3.5301642 C3.42526268,3.7217235 3.3249221,3.92696561 3.3249221,4.14589052 L3.3249221,4.14589052 C3.3249221,4.4377904 3.4663111,4.66857375 3.74908912,4.83824055 C4.03186713,5.00608299 4.53357005,5.1538573 5.25419789,5.2815635 L5.25419789,5.2815635 L6.58143016,5.51417122 C9.62813519,6.04323976 11.1514877,7.38415484 11.1514877,9.53691647 L11.1514877,9.53691647 C11.1514877,10.4034943 10.875095,11.172468 10.3223096,11.8438377 C9.77134857,12.5133831 8.99416513,13.0260323 7.99075928,13.3817852 L7.99075928,13.3817852 C7.06032841,13.7192945 5.98394759,13.8880491 4.76161683,13.8880491 L4.76161683,13.8880491 C3.92240467,13.8880491 3.09869969,13.7940938 2.29050189,13.6061833 C1.48412847,13.4200971 0.752554385,13.1491775 0.0957796489,12.7934245 L0.0957796489,12.7934245 L0.13682807,10.0294975 Z" id="lt_ambientbold_115"></path>
                                        </g>
                                        <g id="lt_ambientbold_105-link" transform="translate(71.410570, 2.285029)">
                                            <path d="M0,17.7602835 L0,5.30892911 L3.28387368,3.92696561 L3.28387368,17.7602835 L0,17.7602835 Z M0,4.2964014 L0,1.38196351 L3.28387368,0 L3.28387368,2.91443789 L0,4.2964014 Z" id="lt_ambientbold_105"></path>
                                        </g>
                                        <g id="lt_ambientbold_116-link" transform="translate(75.063879, 2.380808)">
                                            <path d="M10.6041754,13.8880491 L10.6041754,17.3087508 C9.63725706,17.7739663 8.62929028,18.006574 7.58027507,18.006574 L7.58027507,18.006574 C5.97482572,18.006574 4.75431934,17.5577779 3.91875592,16.6601858 C3.08501688,15.7607693 2.66814736,14.4444832 2.66814736,12.7113277 L2.66814736,12.7113277 L2.66814736,7.15610806 L1.55555506e-14,7.15610806 L1.40932912,4.14589052 L2.66814736,4.14589052 L2.66814736,1.38196351 L5.95202104,0 L5.95202104,4.14589052 L10.7546863,4.14589052 L9.34535718,7.15610806 L5.95202104,7.15610806 L5.95202104,12.6565965 C5.95202104,13.3772243 6.11347816,13.9318341 6.43639241,14.3204258 C6.76113103,14.7071931 7.22452209,14.9005768 7.8265656,14.9005768 L7.8265656,14.9005768 C8.66577776,14.9005768 9.5916477,14.5630676 10.6041754,13.8880491 L10.6041754,13.8880491 Z" id="lt_ambientbold_116"></path>
                                        </g>
                                        <g id="lt_ambientbold_101-link" transform="translate(85.804883, 6.321457)">
                                            <path d="M6.60879578,0 C7.83112654,0 8.9184536,0.291899883 9.87077696,0.875699648 C10.8249247,1.45949941 11.5665328,2.28502877 12.0956014,3.35228771 L12.0956014,3.35228771 C12.6246699,4.3739373 12.8892042,5.57346338 12.8892042,6.95086595 L12.8892042,6.95086595 C12.8892042,7.41608139 12.8618386,7.83568747 12.8071073,8.2096842 L12.8071073,8.2096842 L3.37965333,8.2096842 C3.56209075,9.10362759 3.96801403,9.80145074 4.59742315,10.3031537 C5.22683227,10.8048566 6.01131321,11.0557081 6.95086595,11.0557081 L6.95086595,11.0557081 C7.60764069,11.0557081 8.2662398,10.9307384 8.92666328,10.6807991 C9.58891114,10.4290355 10.1845693,10.0751069 10.7136379,9.61901332 L10.7136379,9.61901332 L12.3418919,11.9450905 C11.6030203,12.6109871 10.777491,13.1081291 9.86530384,13.4365165 C8.95311671,13.7649038 7.92690618,13.9290975 6.78667227,13.9290975 L6.78667227,13.9290975 C5.48224467,13.9290975 4.31190858,13.6371976 3.27566399,13.0533979 C2.24124379,12.4695981 1.4321338,11.6440688 0.848334034,10.5768098 L0.848334034,10.5768098 C0.282778011,9.51867273 0,8.31458572 0,6.96454876 L0,6.96454876 C0,5.62363367 0.275480514,4.42228322 0.826441542,3.3604974 C1.37922694,2.2968872 2.15732257,1.47318222 3.16072842,0.889382455 L3.16072842,0.889382455 C4.16413426,0.296460818 5.31349005,0 6.60879578,0 L6.60879578,0 Z M6.41723648,2.90075508 C5.56890245,2.90075508 4.87564023,3.13609936 4.33744982,3.60678792 C3.79925941,4.07565211 3.43894549,4.7570559 3.25650806,5.65099929 L3.25650806,5.65099929 L9.42745402,5.65099929 C9.25413846,4.76617777 8.90750735,4.08659836 8.38756069,3.61226105 C7.86761402,3.13792374 7.21083929,2.90075508 6.41723648,2.90075508 L6.41723648,2.90075508 Z" id="lt_ambientbold_101"></path>
                                        </g>
                                        <g id="lt_ambientbold_66-link" transform="translate(99.857125, 0.383119)">
                                            <path d="M0,0 L7.70342034,0 C10.0021319,0 11.7717749,0.472512935 13.0123495,1.4175388 C14.252924,2.3607403 14.8732112,3.71260163 14.8732112,5.4731228 L14.8732112,5.4731228 C14.8732112,6.23935999 14.7272613,6.94904158 14.4353614,7.60216757 C14.1434615,8.25346918 13.7329773,8.78436209 13.2039087,9.1948463 L13.2039087,9.1948463 C13.0032276,9.34079624 12.7888636,9.46850244 12.5608168,9.57796489 L12.5608168,9.57796489 C13.0898854,9.79688981 13.566047,10.0979116 13.9893019,10.4810302 C14.4143811,10.8641488 14.7637487,11.3065595 15.0374049,11.8082624 L15.0374049,11.8082624 C15.4022797,12.4832809 15.5847172,13.2221525 15.5847172,14.0248772 L15.5847172,14.0248772 C15.5847172,15.8948608 14.9507471,17.3178727 13.682807,18.2939129 C12.4148669,19.2699532 10.5676879,19.7579733 8.14127016,19.7579733 L8.14127016,19.7579733 L0,19.7579733 L0,0 Z M3.5301642,11.4661923 L3.5301642,16.4193684 L8.00444209,16.4193684 C8.93487297,16.4193684 9.66918361,16.3418325 10.207374,16.1867607 C10.7455644,16.0316889 11.1651705,15.7808374 11.4661923,15.4342063 L11.4661923,15.4342063 L11.4661923,15.4342063 C11.7580921,15.0784533 11.9040421,14.5721894 11.9040421,13.9154147 L11.9040421,13.9154147 C11.9040421,13.3224931 11.7763359,12.8481558 11.5209235,12.4924028 C11.2655111,12.1366498 10.8550269,11.8766765 10.2894709,11.7124828 C9.72391484,11.5482891 8.96223858,11.4661923 8.00444209,11.4661923 L8.00444209,11.4661923 L3.5301642,11.4661923 Z M3.5301642,3.33860491 L3.5301642,8.14127016 L7.60764069,8.14127016 C8.49246221,8.14127016 9.173866,8.07285613 9.65185205,7.93602806 C10.1316625,7.79919999 10.5083958,7.56659227 10.7820519,7.2382049 L10.7820519,7.2382049 C11.0557081,6.89157379 11.1925361,6.38074899 11.1925361,5.70573052 L11.1925361,5.70573052 C11.1925361,4.96685894 11.0192206,4.42410759 10.6725895,4.07747648 C10.3259583,3.73084537 9.91547413,3.52104233 9.44113682,3.44806736 C8.96679952,3.37509239 8.34651227,3.33860491 7.58027507,3.33860491 L7.58027507,3.33860491 L3.5301642,3.33860491 Z" id="lt_ambientbold_66"></path>
                                        </g>
                                        <g id="lt_ambientbold_117-link" transform="translate(116.385956, 6.143580)">
                                            <path d="M12.4513544,0 L12.4513544,7.99075928 C12.4513544,9.26782127 12.1776982,10.3761286 11.6303859,11.3156814 C11.0830737,12.2552341 10.2985927,12.9530573 9.27694314,13.4091509 L9.27694314,13.4091509 C8.32826852,13.8287569 7.31117987,14.03856 6.22567718,14.03856 L6.22567718,14.03856 C5.04895578,14.03856 3.99720402,13.8105132 3.07042189,13.3544196 C2.14546414,12.8983261 1.41389006,12.2415513 0.875699648,11.3840954 L0.875699648,11.3840954 C0.291899883,10.4627864 0,9.33167437 0,7.99075928 L0,7.99075928 L0,1.3682807 L3.25650806,0 L3.25650806,7.74446876 C3.25650806,8.79348396 3.5091839,9.5916477 4.01453557,10.13896 C4.52171162,10.6862723 5.25875882,10.9599284 6.22567718,10.9599284 L6.22567718,10.9599284 C7.19259554,10.9599284 7.92873056,10.6862723 8.43408223,10.13896 C8.94125828,9.5916477 9.1948463,8.79348396 9.1948463,7.74446876 L9.1948463,7.74446876 L9.1948463,1.3682807 L12.4513544,0 Z" id="lt_ambientbold_117"></path>
                                        </g>
                                        <g id="lt_ambientbold_105-link" transform="translate(130.000349, 2.285029)">
                                            <path d="M0,17.7602835 L0,5.30892911 L3.28387368,3.92696561 L3.28387368,17.7602835 L0,17.7602835 Z M0,4.2964014 L0,1.38196351 L3.28387368,0 L3.28387368,2.91443789 L0,4.2964014 Z" id="lt_ambientbold_105"></path>
                                        </g>
                                        <g id="lt_ambientbold_108-link" transform="translate(134.666186, 0.164194)">
                                            <polygon id="lt_ambientbold_108" points="0 19.8811186 0 1.38196351 3.28387368 0 3.28387368 19.8811186"></polygon>
                                        </g>
                                        <g id="lt_ambientbold_100-link" transform="translate(138.771029, 0.000000)">
                                            <path d="M6.62247858,6.30777402 C7.38871578,6.30777402 8.0956608,6.43821678 8.74331367,6.6991023 C9.39096653,6.95816345 9.96108349,7.34310642 10.4536645,7.85393121 L10.4536645,7.85393121 L10.4536645,1.39564631 L13.6691242,0 L13.6691242,20.1821403 L10.4536645,20.1821403 L10.4536645,18.71808 C9.97020536,19.2197829 9.40464934,19.6001649 8.75699648,19.8592261 C8.10934361,20.1201116 7.39783765,20.2505543 6.62247858,20.2505543 L6.62247858,20.2505543 C5.40014783,20.2505543 4.27815765,19.9477082 3.25650806,19.342016 C2.23485848,18.7344993 1.43669473,17.8925506 0.862016841,16.8161698 L0.862016841,16.8161698 C0.287338947,15.7762765 0,14.5949941 0,13.2723228 L0,13.2723228 C0,11.9861389 0.284602385,10.8094175 0.853807156,9.74215858 C1.4248363,8.67489963 2.22117567,7.83568747 3.24282526,7.22452209 L3.24282526,7.22452209 C4.2462311,6.61335671 5.37278221,6.30777402 6.62247858,6.30777402 L6.62247858,6.30777402 Z M6.82772069,9.37272279 C6.1253366,9.37272279 5.49775185,9.5350921 4.94496645,9.85983072 C4.39400542,10.182745 3.95889216,10.6452238 3.63962666,11.2472673 L3.63962666,11.2472673 C3.32036116,11.8584327 3.16072842,12.5334512 3.16072842,13.2723228 L3.16072842,13.2723228 C3.16072842,14.0294381 3.31580023,14.7044566 3.62594385,15.2973782 C3.93608748,15.8902999 4.3739373,16.3509544 4.93949332,16.6793417 L4.93949332,16.6793417 L4.93949332,16.6930245 C5.46856186,17.0214119 6.09797098,17.1856056 6.82772069,17.1856056 L6.82772069,17.1856056 C7.53922665,17.1856056 8.17319671,17.0214119 8.72963086,16.6930245 C9.28606501,16.3646372 9.7193539,15.9039827 10.0294975,15.311061 L10.0294975,15.311061 C10.3396412,14.7272613 10.494713,14.0476818 10.494713,13.2723228 L10.494713,13.2723228 C10.494713,12.5243293 10.3369046,11.8520474 10.0212878,11.255477 C9.70749547,10.6570823 9.27238221,10.1936912 8.71594805,9.86530384 L8.71594805,9.86530384 C8.15039203,9.53691647 7.52098291,9.37272279 6.82772069,9.37272279 L6.82772069,9.37272279 Z" id="lt_ambientbold_100"></path>
                                        </g>
                                        <g id="lt_ambientbold_101-link" transform="translate(153.261121, 6.321457)">
                                            <path d="M6.60879578,0 C7.83112654,0 8.9184536,0.291899883 9.87077696,0.875699648 C10.8249247,1.45949941 11.5665328,2.28502877 12.0956014,3.35228771 L12.0956014,3.35228771 C12.6246699,4.3739373 12.8892042,5.57346338 12.8892042,6.95086595 L12.8892042,6.95086595 C12.8892042,7.41608139 12.8618386,7.83568747 12.8071073,8.2096842 L12.8071073,8.2096842 L3.37965333,8.2096842 C3.56209075,9.10362759 3.96801403,9.80145074 4.59742315,10.3031537 C5.22683227,10.8048566 6.01131321,11.0557081 6.95086595,11.0557081 L6.95086595,11.0557081 C7.60764069,11.0557081 8.2662398,10.9307384 8.92666328,10.6807991 C9.58891114,10.4290355 10.1845693,10.0751069 10.7136379,9.61901332 L10.7136379,9.61901332 L12.3418919,11.9450905 C11.6030203,12.6109871 10.777491,13.1081291 9.86530384,13.4365165 C8.95311671,13.7649038 7.92690618,13.9290975 6.78667227,13.9290975 L6.78667227,13.9290975 C5.48224467,13.9290975 4.31190858,13.6371976 3.27566399,13.0533979 C2.24124379,12.4695981 1.4321338,11.6440688 0.848334034,10.5768098 L0.848334034,10.5768098 C0.282778011,9.51867273 0,8.31458572 0,6.96454876 L0,6.96454876 C0,5.62363367 0.275480514,4.42228322 0.826441542,3.3604974 C1.37922694,2.2968872 2.15732257,1.47318222 3.16072842,0.889382455 L3.16072842,0.889382455 C4.16413426,0.296460818 5.31349005,0 6.60879578,0 L6.60879578,0 Z M6.41723648,2.90075508 C5.56890245,2.90075508 4.87564023,3.13609936 4.33744982,3.60678792 C3.79925941,4.07565211 3.43894549,4.7570559 3.25650806,5.65099929 L3.25650806,5.65099929 L9.42745402,5.65099929 C9.25413846,4.76617777 8.90750735,4.08659836 8.38756069,3.61226105 C7.86761402,3.13792374 7.21083929,2.90075508 6.41723648,2.90075508 L6.41723648,2.90075508 Z" id="lt_ambientbold_101"></path>
                                        </g>
                                        <g id="lt_ambientbold_114-link" transform="translate(167.381778, 6.211994)">
                                            <path d="M8.57911998,0.437849824 L8.57911998,4.07747648 C8.43317004,3.86767344 8.12485079,3.69253351 7.65416223,3.5520567 C7.18529805,3.4097555 6.69545356,3.33860491 6.18462876,3.33860491 L6.18462876,3.33860491 C5.59170712,3.33860491 5.07814577,3.46175017 4.64394469,3.7080407 C4.21156799,3.95433122 3.87679531,4.31920607 3.63962666,4.80266525 L3.63962666,4.80266525 C3.39333613,5.29524631 3.27019087,5.87904607 3.27019087,6.55406455 L3.27019087,6.55406455 L3.27019087,13.9701459 L0,13.9701459 L0,1.39564631 L3.24282526,0 L3.24282526,1.55984 C4.09115929,0.656774736 5.29068537,0.205242105 6.8414035,0.205242105 L6.8414035,0.205242105 C7.59851882,0.205242105 8.17775765,0.282778011 8.57911998,0.437849824 L8.57911998,0.437849824 Z" id="lt_ambientbold_114"></path>
                                        </g>
                                    </g>
                                </g>
                                <g id="Group">
                                    <rect id="Rectangle" x="0" y="0" width="36.7344415" height="35.1462887"></rect>
                                    <rect id="Rectangle" fill="#000000" fill-rule="nonzero" x="0" y="0" width="1" height="1"></rect>
                                    <g transform="translate(0.532520, 0.532519)" fill="#000000" fill-rule="nonzero" id="Path">
                                        <path d="M14.9352941,13.3757834 C14.7752285,13.39942 14.5624989,13.3152405 14.4617322,13.1883491 L13.7165565,12.2478603 C13.6162046,12.1213836 13.5826157,11.8945549 13.6423292,11.7444416 L14.0843756,10.6281295 C14.1440892,10.4780162 14.3236446,10.3357817 14.4832955,10.3121451 L15.6696881,10.1371512 C15.8297537,10.1135145 16.0424833,10.1976941 16.1428353,10.3245854 L16.888011,11.2650743 C16.988363,11.391551 17.0219519,11.6183796 16.962653,11.7684929 L16.5206066,12.8848051 C16.4608931,13.0349184 16.2817523,13.1771528 16.1216868,13.2007894 L14.9352941,13.3757834 Z"></path>
                                        <path d="M17.8156448,9.70878917 C17.6555793,9.73242579 17.4428497,9.64824623 17.3424977,9.52135488 L16.6657438,8.66753365 C16.5653918,8.54105698 16.5318029,8.31422832 16.5911018,8.16411502 L16.9900217,7.15230162 C17.0493206,7.00218832 17.2284613,6.85953922 17.3885269,6.83590259 L18.466274,6.67708106 C18.6263396,6.65344444 18.8378252,6.737624 18.9394212,6.86451535 L19.6141017,7.7179219 C19.714039,7.84481325 19.7476279,8.07164191 19.6887437,8.22175521 L19.2902385,9.23315393 C19.2305249,9.38326723 19.0513842,9.52591633 18.8913186,9.54955296 L17.8156448,9.70878917 Z"></path>
                                        <path d="M19.3209246,14.1806727 C19.1608591,14.2043093 18.9485441,14.1201297 18.8477775,13.9932384 L17.998103,12.9200527 C17.8981657,12.7931613 17.8645768,12.5667473 17.9226317,12.4162194 L18.4256356,11.1456471 C18.4857639,10.9951192 18.6636606,10.8528847 18.8249702,10.8288334 L20.1801367,10.6268854 C20.3402022,10.6028341 20.5525172,10.6874284 20.6532838,10.813905 L21.5029583,11.8870907 C21.6024809,12.0139821 21.6360698,12.2408107 21.5776002,12.390924 L21.0745963,13.664399 C21.0152974,13.814927 20.8361567,13.9571614 20.6756764,13.980798 L19.3209246,14.1806727 Z"></path>
                                        <path d="M22.1788828,10.3751761 C22.0175732,10.3988127 21.8060876,10.3146332 21.7040769,10.1881565 L21.0658881,9.38285255 C20.9663654,9.25637588 20.9331912,9.02954722 20.9912461,8.87943392 L21.366944,7.92443135 C21.4274869,7.77390338 21.6057983,7.63166895 21.7662786,7.60803233 L22.7834828,7.45750435 C22.9447924,7.43386772 23.156278,7.51804728 23.2582887,7.64493863 L23.8977215,8.44941322 C23.9980735,8.5758899 24.0312477,8.80271856 23.9731929,8.95283186 L23.5941775,9.9082491 C23.5336346,10.0583624 23.3544939,10.2010115 23.194843,10.2246481 L22.1788828,10.3751761 Z"></path>
                                        <path d="M25.2844035,7.393644 C25.124338,7.41728062 24.912023,7.33310106 24.8108417,7.20620971 L24.3182047,6.58668134 C24.2178527,6.45978999 24.1846785,6.23337601 24.2439774,6.08326271 L24.5363251,5.34803928 C24.5960387,5.19792598 24.7755941,5.05569155 24.9356596,5.03205493 L25.7135949,4.91677455 C25.8740751,4.89313793 26.0859754,4.97731748 26.1875714,5.10379416 L26.6802084,5.72415188 C26.7809751,5.85062856 26.814564,6.07704254 26.7552651,6.22715584 L26.464576,6.96154991 C26.4048625,7.11166321 26.2257217,7.25389764 26.0660708,7.27753426 L25.2844035,7.393644 Z"></path>
                                        <path d="M28.3385042,5.10586755 C28.178024,5.12950417 27.9661237,5.04490994 27.8645277,4.91843326 L27.6240147,4.61405989 C27.5236627,4.48758321 27.4900738,4.26075455 27.5493727,4.11064125 L27.6920218,3.74862769 C27.7517354,3.59809971 27.9308761,3.45586528 28.090527,3.43264334 L28.4753478,3.37624718 C28.6354134,3.35302523 28.8477283,3.43679011 28.9493244,3.56409614 L29.1906667,3.86764016 C29.290604,3.99411684 29.3241929,4.2209455 29.2653087,4.3710588 L29.1218302,4.73348704 C29.0621167,4.88401502 28.8829759,5.02624944 28.7233251,5.04947139 L28.3385042,5.10586755 Z"></path>
                                        <path d="M29.3291691,8.86740827 C29.1691035,8.89145957 28.9576179,8.80728001 28.8551925,8.68080334 L28.5761145,8.32957139 C28.4753478,8.20309472 28.4417589,7.97668073 28.5010578,7.82656743 L28.6652702,7.41064578 C28.7258131,7.26053248 28.9041245,7.11829805 29.0641901,7.09507611 L29.5070658,7.02997172 C29.6679607,7.00674977 29.8802756,7.09092933 29.9818716,7.21740601 L30.2613644,7.5678086 C30.3617163,7.69428527 30.3953052,7.92069925 30.3368357,8.07081255 L30.1726233,8.4850755 C30.1120804,8.6351888 29.9341837,8.7778379 29.7737035,8.80147453 L29.3291691,8.86740827 Z"></path>
                                        <path d="M31.9810325,7.74238788 C31.8209669,7.76560982 31.6090666,7.68101559 31.5074706,7.55412424 L31.4137535,7.43594111 C31.3146455,7.30904976 31.2814713,7.0822211 31.3395262,6.93252248 L31.3959223,6.79236144 C31.4564653,6.64224814 31.6351913,6.50042839 31.7952569,6.47720645 L31.9420528,6.45564321 C32.102533,6.43242126 32.3140186,6.5170155 32.4160293,6.64349217 L32.5093318,6.76001659 C32.6088544,6.88649326 32.6424433,7.11332192 32.5839737,7.26343522 L32.5279922,7.40525497 C32.4674493,7.55578295 32.2891379,7.69760269 32.1286577,7.72082464 L31.9810325,7.74238788 Z"></path>
                                        <path d="M26.3638094,11.3791106 C26.2033291,11.4027473 25.9910142,11.3185677 25.8898329,11.1916763 L25.3627776,10.5261188 C25.2624256,10.3996421 25.2288367,10.1728134 25.2881356,10.0227001 L25.6008025,9.23356861 C25.6613455,9.08345531 25.8404862,8.94122089 26.0001371,8.91758426 L26.8386153,8.79401033 C26.9986808,8.7703737 27.2109958,8.85455326 27.3121771,8.98144461 L27.8392324,9.6470022 C27.9395843,9.77347888 27.9731732,10.0003075 27.914289,10.1504208 L27.6024514,10.9391377 C27.5423232,11.0896657 27.3635971,11.2319001 27.2039462,11.2555367 L26.3638094,11.3791106 Z"></path>
                                        <path d="M29.7285036,12.4510523 C29.568438,12.4746889 29.3569525,12.3905094 29.2549418,12.2640327 L28.9020511,11.8207423 C28.8021138,11.6938509 28.7689396,11.467437 28.8282385,11.3173237 L29.0380654,10.7894391 C29.0977789,10.6393258 29.2769197,10.4966767 29.4373999,10.47304 L29.9959707,10.3905192 C30.1560362,10.3668826 30.3687659,10.4510621 30.4695325,10.5775388 L30.8236672,11.0229026 C30.9236045,11.1493792 30.9567787,11.3762079 30.8978945,11.5263212 L30.6897263,12.0521324 C30.6291834,12.2022457 30.4504574,12.3448948 30.2903918,12.3685314 L29.7285036,12.4510523 Z"></path>
                                        <path d="M32.7780429,11.8033258 C32.6179773,11.8273771 32.4052477,11.7427829 32.304481,11.6163062 L32.025403,11.2634156 C31.925051,11.1365242 31.8918768,10.9096956 31.9503463,10.7595823 L32.1149733,10.3403432 C32.1746869,10.1902299 32.3538276,10.0479955 32.5134785,10.0247735 L32.960501,9.95966913 C33.1209812,9.93644718 33.3324668,10.0206267 33.4344775,10.1475181 L33.7131409,10.4979207 C33.8134929,10.6243974 33.8470818,10.8508113 33.7877829,11.0009246 L33.6227412,11.4205784 C33.5621982,11.5706917 33.3834722,11.7133408 33.2225773,11.7369774 L32.7780429,11.8033258 Z"></path>
                                        <path d="M24.2742488,2.95617875 C24.1137686,2.97981537 23.9014536,2.89563582 23.8002723,2.76915914 L23.5854693,2.50003336 C23.4851173,2.37355669 23.4515284,2.14672803 23.509998,1.99661473 L23.637304,1.67814231 C23.6978469,1.52802901 23.8761583,1.38537991 24.0362239,1.36215796 L24.3729421,1.31198197 C24.5342517,1.28834535 24.7457373,1.3725249 24.8481627,1.49900158 L25.0633803,1.76771268 C25.162903,1.89418935 25.1964919,2.12060334 25.1380223,2.27071664 L25.0115456,2.58960373 C24.9510027,2.73971703 24.771862,2.88236613 24.6122111,2.90600276 L24.2742488,2.95617875 Z"></path>
                                        <path d="M20.02795,2.0749888 C19.8678844,2.09862542 19.6555695,2.01444587 19.5548028,1.88755451 L19.2039855,1.44467881 C19.1036335,1.31778746 19.06963,1.0909588 19.1276848,0.940845499 L19.3337796,0.418766371 C19.3943226,0.268653071 19.5713899,0.126003969 19.7322848,0.102367344 L20.2937583,0.0194318198 C20.4542386,-0.00420480475 20.6653095,0.0803894304 20.7669055,0.207280783 L21.1152347,0.64932713 C21.215172,0.776218482 21.2479315,1.00304714 21.1886326,1.15316044 L20.9825379,1.67565425 C20.9219949,1.82576755 20.7428542,1.96841665 20.582374,1.99205327 L20.02795,2.0749888 Z"></path>
                                        <path d="M15.4246137,2.18363434 C15.2645481,2.20727096 15.0518185,2.1230914 14.9514665,1.99620005 L14.5600108,1.502319 C14.4596588,1.37542765 14.4264846,1.14901367 14.4857835,0.998900366 L14.7184177,0.413375562 C14.7781313,0.263262262 14.9576867,0.12061316 15.1173376,0.0969765353 L15.7410127,0.00408874772 C15.9006636,-0.0199625544 16.1133932,0.0646316807 16.2141599,0.191108356 L16.6052009,0.685404083 C16.7055529,0.812295436 16.7391417,1.0391241 16.6798428,1.1892374 L16.4488674,1.77434752 C16.3895685,1.92446082 16.2104278,2.06710992 16.0503622,2.09074655 L15.4246137,2.18363434 Z"></path>
                                        <path d="M11.702882,2.29767068 C11.5428164,2.32130731 11.3300868,2.23712775 11.2301495,2.1102364 L11.0232254,1.84774546 C10.9232881,1.72085411 10.8892845,1.49402545 10.9485834,1.34349747 L11.0709133,1.03083054 C11.1302122,0.880302566 11.3089383,0.738068141 11.4690038,0.714846194 L11.80199,0.666328912 C11.9620555,0.643106965 12.1751998,0.727286523 12.2759665,0.853763198 L12.486208,1.11791284 C12.5869747,1.24438952 12.6201489,1.47038882 12.5604353,1.62050212 L12.436032,1.93151034 C12.3759038,2.08162364 12.1963484,2.22385807 12.0362828,2.24749469 L11.702882,2.29767068 Z"></path>
                                        <path d="M16.7984406,5.58399085 C16.6383751,5.60762747 16.4256455,5.52344791 16.3252935,5.39655656 L15.8608545,4.8102024 C15.7605025,4.68331105 15.7269137,4.45606771 15.7862126,4.30636909 L16.0598998,3.61219875 C16.1191987,3.46208545 16.2983394,3.31985102 16.458405,3.29662908 L17.1990192,3.18839822 C17.3590848,3.16517627 17.5718144,3.24977051 17.6721664,3.37666186 L18.1345319,3.96011327 C18.2348839,4.08700463 18.2684728,4.31341861 18.2104179,4.46394659 L17.936316,5.15770225 C17.8770171,5.30823023 17.6974617,5.45046465 17.5378108,5.47410128 L16.7984406,5.58399085 Z"></path>
                                        <path d="M21.0588385,6.29682168 C20.8983583,6.32045831 20.6860434,6.23627875 20.584862,6.1093874 L20.092225,5.4902737 C19.991873,5.36379703 19.9582841,5.13696837 20.0159243,4.98685507 L20.305784,4.25163164 C20.3650829,4.10151834 20.5442236,3.95886924 20.7042892,3.93564729 L21.4884446,3.81995224 C21.6497542,3.79631561 21.8616544,3.88090985 21.9632504,4.00738652 L22.4558875,4.62732957 C22.5562394,4.75380625 22.5894136,4.98063491 22.5305294,5.1307482 L22.2394257,5.86514228 C22.1788828,6.01525558 22.0001567,6.15790468 21.8400912,6.18112662 L21.0588385,6.29682168 Z"></path>
                                        <path d="M13.7161419,9.0390848 C13.5560763,9.06313611 13.3433467,8.97854187 13.2429947,8.85165052 L12.7151101,8.18401955 C12.6147581,8.05712819 12.5815839,7.83029953 12.6404681,7.68018623 L12.9527204,6.88815197 C13.0120193,6.73803867 13.19116,6.59538957 13.3512256,6.57216762 L14.1955092,6.44776434 C14.3555748,6.42412771 14.5683044,6.50872195 14.6686564,6.6356133 L15.1957116,7.30075621 C15.2960636,7.42764756 15.3296525,7.65447622 15.2703536,7.80458952 L14.958516,8.59662378 C14.8992171,8.74673708 14.7200764,8.88938618 14.5604255,8.91343748 L13.7161419,9.0390848 Z"></path>
                                        <path d="M12.6927175,5.35218606 C12.5330666,5.37623736 12.3199223,5.29164312 12.2195703,5.16516645 L11.8886576,4.74758608 C11.7883056,4.62110941 11.7547167,4.39428075 11.8140156,4.24416745 L12.0114022,3.74572494 C12.0711157,3.59519697 12.2502565,3.45296254 12.4099074,3.42891124 L12.9386213,3.35012249 C13.0982722,3.32607119 13.3110018,3.41066542 13.4113538,3.53755678 L13.7430959,3.95762521 C13.8434479,4.08451656 13.8766221,4.31134522 13.8169085,4.46145852 L13.6199367,4.95699828 C13.5602231,5.10711158 13.3806677,5.24976068 13.2210168,5.27339731 L12.6927175,5.35218606 Z"></path>
                                        <path d="M8.75410942,5.0863777 C8.59404386,5.11001432 8.38131424,5.02583477 8.28096226,4.89894341 L8.0039576,4.54937018 C7.90360562,4.42247882 7.87001673,4.19606484 7.92931563,4.04553686 L8.09394265,3.62878585 C8.15324155,3.47825788 8.33279696,3.33643813 8.49244784,3.31321618 L8.93407951,3.24852647 C9.09414508,3.22530453 9.3068747,3.30989876 9.40722668,3.43679011 L9.68423133,3.78677803 C9.78458332,3.91366938 9.81775753,4.14008336 9.75845863,4.29019666 L9.59424629,4.70445961 C9.53453271,4.85457291 9.3549773,4.99722201 9.19532642,5.02085863 L8.75410942,5.0863777 Z"></path>
                                        <path d="M6.02262792,5.09757399 C5.86256236,5.12121062 5.64941806,5.03703106 5.5486514,4.91055439 L5.3985381,4.72229075 C5.29777143,4.59581407 5.26418255,4.36981477 5.32348145,4.21970147 L5.41222246,3.99577555 C5.47152136,3.84566225 5.65107677,3.70301315 5.81072765,3.67937652 L6.050826,3.64371425 C6.21089156,3.61966295 6.4232065,3.70425718 6.52314381,3.83156321 L6.67118372,4.01982685 C6.77112103,4.14713288 6.80429524,4.37396154 6.74458166,4.52407484 L6.65667001,4.7471714 C6.59695643,4.89769938 6.41781569,5.03993381 6.25775013,5.06315575 L6.02262792,5.09757399 Z"></path>
                                        <path d="M9.44496234,8.58750087 C9.28489678,8.6111375 9.07216716,8.52695794 8.9714005,8.40048126 L8.6193392,7.95719089 C8.51857253,7.83071421 8.48498365,7.60430023 8.54469722,7.45377225 L8.75245071,6.9283757 C8.81216429,6.77784772 8.99130502,6.63602798 9.15137059,6.61280603 L9.71242941,6.53111454 C9.87249497,6.50789259 10.0852246,6.59248683 10.1855766,6.71937818 L10.5330764,7.15893646 C10.6334284,7.28582781 10.6670173,7.5122418 10.6073037,7.6623551 L10.3995502,8.18816632 C10.3398367,8.33827962 10.1606959,8.48092872 10.0006304,8.50456535 L9.44496234,8.58750087 Z"></path>
                                        <path d="M5.85136606,8.3349622 C5.6913005,8.35818415 5.4781562,8.27400459 5.37738954,8.14752791 L5.07716294,7.77017128 C4.97639628,7.6436946 4.94322207,7.41728062 5.00293564,7.26716732 L5.18249105,6.81682742 C5.24220463,6.66671412 5.42217472,6.5244797 5.58182561,6.50125775 L6.05621681,6.43159191 C6.21628237,6.40795528 6.42942667,6.49213484 6.53019333,6.61902619 L6.83124928,6.99721219 C6.93201595,7.12368886 6.96560483,7.35010284 6.90589126,7.50021614 L6.72757988,7.94931201 C6.6678663,8.09942531 6.48831089,8.24165973 6.32866001,8.26488168 L5.85136606,8.3349622 Z"></path>
                                        <path d="M10.5820084,12.6496829 C10.4219428,12.6733195 10.2092132,12.5887253 10.1088612,12.4622486 L9.49472366,11.6872161 C9.39437167,11.5607394 9.36119746,11.3339108 9.42049636,11.1837975 L9.78582735,10.2611398 C9.84554093,10.1110265 10.0250963,9.96837736 10.1847472,9.94474073 L11.1646304,9.79960357 C11.324696,9.77596694 11.5374256,9.8601465 11.6377776,9.98703785 L12.2523299,10.7641437 C12.3526818,10.8910351 12.385856,11.1174491 12.3265571,11.267977 L11.9616408,12.1902201 C11.9019273,12.340748 11.7227865,12.4829825 11.562721,12.5062044 L10.5820084,12.6496829 Z"></path>
                                        <path d="M23.7923934,14.7902488 C23.6319132,14.8138854 23.4200129,14.7297058 23.3192463,14.6028145 L22.5798761,13.6677164 C22.4799388,13.5408251 22.4463499,13.3139964 22.5052341,13.1638831 L22.942719,12.0537911 C23.0020179,11.9036778 23.1807439,11.7610287 23.3412242,11.7378068 L24.5226407,11.5644715 C24.6827063,11.5408349 24.8954359,11.6254291 24.9962026,11.7523205 L25.7355728,12.6878332 C25.8355101,12.8147246 25.869099,13.0411385 25.8102147,13.1916665 L25.3727299,14.2988558 C25.313431,14.4493838 25.1347049,14.5916182 24.9742247,14.6152548 L23.7923934,14.7902488 Z"></path>
                                        <path d="M27.7546381,15.6855378 C27.5945726,15.7091744 27.3822576,15.6245801 27.2810763,15.4981035 L26.7507036,14.8300578 C26.6507663,14.7035811 26.6167627,14.4767525 26.6764763,14.3266392 L26.9899726,13.5366783 C27.0501008,13.386565 27.2292416,13.2439159 27.3893071,13.2202793 L28.2323467,13.0950466 C28.3924123,13.0709953 28.6047273,13.1555896 28.7054939,13.2820662 L29.2342079,13.9501119 C29.3337305,14.0770033 29.3677341,14.3034172 29.3088499,14.4539452 L28.9961829,15.2459795 C28.936884,15.3960928 28.758158,15.5387419 28.5976777,15.5619638 L27.7546381,15.6855378 Z"></path>
                                        <path d="M31.622751,16.1561969 C31.4626854,16.1798335 31.2503705,16.0956539 31.1487745,15.9687626 L30.6544787,15.3459168 C30.5545414,15.2194401 30.5205379,14.9930261 30.5802514,14.8429128 L30.8750872,14.0998105 C30.9352155,13.9496972 31.1139416,13.8074628 31.2744218,13.7838262 L32.0631386,13.6681311 C32.2232042,13.6444945 32.4346898,13.7290887 32.5367005,13.8559801 L33.0309962,14.4808993 C33.1313482,14.6077906 33.1645224,14.8342046 33.1056382,14.9843179 L32.8108024,15.7241028 C32.7506741,15.8742161 32.5715334,16.0164505 32.4114678,16.0400871 L31.622751,16.1561969 Z"></path>
                                        <path d="M34.9351958,15.4404633 C34.7747156,15.4645146 34.5628153,15.3799203 34.4620487,15.253029 L34.3235464,15.0776204 C34.2231944,14.950729 34.1900202,14.7239003 34.248075,14.573787 L34.3310106,14.3639602 C34.3915535,14.2138469 34.5686208,14.0716124 34.7299304,14.0483905 L34.9501242,14.0160456 C35.1106045,13.9928237 35.3225047,14.0770033 35.4245154,14.2038946 L35.5659205,14.3805473 C35.6658578,14.5070239 35.699032,14.7334379 35.6405625,14.8835512 L35.558871,15.09089 C35.4987427,15.2410033 35.319602,15.3836524 35.1595364,15.4072891 L34.9351958,15.4404633 Z"></path>
                                        <path d="M0.939509613,12.6554884 C0.779858728,12.6795397 0.567129107,12.5953601 0.466777122,12.4684687 L0.449360662,12.4464908 C0.349008677,12.3195995 0.315834467,12.0931855 0.375133367,11.9426575 L0.385914986,11.9157035 C0.445213886,11.7651755 0.624769297,11.6229411 0.784420182,11.5997191 L0.810959549,11.595987 C0.971025112,11.5723504 1.18416941,11.65653 1.28493607,11.7830066 L1.30318189,11.8062286 C1.40394855,11.9327053 1.43753744,12.1591192 1.37823854,12.3092325 L1.36828628,12.3345279 C1.3085727,12.4846412 1.12901729,12.6272903 0.969366402,12.6513416 L0.939509613,12.6554884 Z"></path>
                                        <path d="M3.01123902,8.40836014 C2.85158813,8.43241144 2.63885851,8.34781721 2.53850653,8.22092585 L2.442716,8.09983999 C2.34277869,7.97294863 2.3091898,7.74611997 2.36890338,7.59600668 L2.42529954,7.45377225 C2.48501311,7.30365895 2.66415385,7.16100985 2.82421941,7.13737322 L2.97723545,7.11498063 C3.13730102,7.09134401 3.34961596,7.17552357 3.44996794,7.30241492 L3.5453438,7.42350078 C3.6452811,7.55039214 3.67845531,7.77680612 3.61832706,7.92691942 L3.56110155,8.06915384 C3.50097329,8.21926714 3.32141788,8.36150157 3.161767,8.38555287 L3.01123902,8.40836014 Z"></path>
                                        <path d="M6.55590334,12.2030751 C6.39583778,12.2267117 6.18310816,12.1425321 6.0823415,12.0156408 L5.65937032,11.48278 C5.55860366,11.3558887 5.52542945,11.1294747 5.58472835,10.9793614 L5.83560831,10.3453193 C5.89532189,10.195206 6.0748773,10.0525569 6.23452818,10.029335 L6.90464722,9.93022702 C7.06471279,9.90659039 7.27744241,9.99076995 7.37820907,10.1172466 L7.80118025,10.6501074 C7.90194691,10.776584 7.9355358,11.002998 7.87582222,11.1531113 L7.62494226,11.7871534 C7.56522868,11.9376814 7.38608794,12.0799158 7.22602238,12.1035524 L6.55590334,12.2030751 Z"></path>
                                        <path d="M3.20406411,11.8987017 C3.04399855,11.9223383 2.83126893,11.8377441 2.73091695,11.7108527 L2.45432697,11.3608648 C2.35397499,11.2339735 2.32080078,11.0075595 2.38009968,10.8574462 L2.54431201,10.4431832 C2.60402559,10.2930699 2.783581,10.1504208 2.94323189,10.1267842 L3.38444888,10.0612651 C3.54409976,10.0372138 3.75682939,10.1218081 3.85759605,10.2482848 L4.1346007,10.5982727 C4.23495269,10.725164 4.26854157,10.951578 4.20924267,11.102106 L4.04461566,11.5184423 C3.98531676,11.6689703 3.80576135,11.8112047 3.64611046,11.8344267 L3.20406411,11.8987017 Z"></path>
                                        <path d="M8.03588778,15.9384911 C7.87582222,15.9621277 7.6630926,15.8775335 7.56315529,15.7506421 L7.07300634,15.1290404 C6.97306903,15.002149 6.93948014,14.7753204 6.99877904,14.6252071 L7.28905338,13.890813 C7.34835228,13.740285 7.52790769,13.5980506 7.68755858,13.574414 L8.47171396,13.4587189 C8.63177953,13.4350823 8.84450915,13.5192618 8.94486113,13.6461532 L9.4345954,14.2652669 C9.53494739,14.3921582 9.56853628,14.6189869 9.50923738,14.7691002 L9.21813368,15.506397 C9.15883478,15.6565103 8.97969405,15.7991594 8.81962849,15.8223814 L8.03588778,15.9384911 Z"></path>
                                        <path d="M12.0512112,16.6102689 C11.8911456,16.6339055 11.678416,16.5493112 11.5776494,16.4228346 L10.9013102,15.5723308 C10.8005435,15.4458541 10.7673693,15.2194401 10.8270829,15.0693268 L11.2280761,14.0591721 C11.2877897,13.9090588 11.4673451,13.7664097 11.6274107,13.7427731 L12.6993523,13.5839516 C12.8594179,13.5603149 13.0721475,13.6444945 13.1724995,13.7709712 L13.8467653,14.6223043 C13.9471173,14.748781 13.9807062,14.9756097 13.9214073,15.125723 L13.5224874,16.1375364 C13.4631885,16.2876497 13.2840478,16.4298841 13.1239822,16.4535207 L12.0512112,16.6102689 Z"></path>
                                        <path d="M16.3982767,17.4246957 C16.2382112,17.4483323 16.0254815,17.3633234 15.9247149,17.2368467 L15.1969557,16.3212385 C15.096189,16.1943472 15.0626001,15.9679332 15.1223137,15.8178199 L15.5535784,14.7292912 C15.6128773,14.5791779 15.7924327,14.4365287 15.9524983,14.4128921 L17.1119369,14.2408009 C17.2720025,14.2171643 17.4847321,14.3013438 17.5854988,14.4278205 L18.3111846,15.3434287 C18.4115366,15.4699054 18.4455402,15.696734 18.3874853,15.847262 L17.9591233,16.9382789 C17.8994097,17.0888068 17.720269,17.2310413 17.5602034,17.2555072 L16.3982767,17.4246957 Z"></path>
                                        <path d="M20.964292,18.2345611 C20.8042265,18.2581977 20.5919115,18.1740182 20.4907302,18.0475415 L19.7069895,17.0622675 C19.6066375,16.9357908 19.5734633,16.7089621 19.6315182,16.5588488 L20.0955424,15.3857258 C20.1560854,15.2351979 20.3343967,15.0929634 20.4944623,15.0697415 L21.7422273,14.8860393 C21.9018781,14.8624027 22.1137784,14.9469969 22.2153744,15.0738883 L22.9962124,16.059577 C23.095735,16.1864683 23.1297386,16.4128823 23.0704397,16.5629956 L22.6060008,17.736948 C22.5462872,17.8858172 22.3671464,18.0284663 22.2070809,18.0529323 L20.964292,18.2345611 Z"></path>
                                        <path d="M25.490913,19.0183018 C25.3308474,19.0419384 25.1185325,18.9573442 25.0173511,18.8304528 L24.3816503,18.0284663 C24.2812984,17.9007456 24.2477095,17.673917 24.3065937,17.5238037 L24.6822916,16.5737772 C24.7424199,16.4232492 24.9203166,16.2810148 25.0816262,16.2573782 L26.0934396,16.1068502 C26.2543345,16.0832136 26.4654054,16.1673931 26.5678308,16.2938698 L27.2035316,17.096271 C27.3030542,17.2235771 27.3366431,17.4504057 27.2781735,17.6001043 L26.9020609,18.5534482 C26.8423474,18.7039762 26.6632066,18.8457959 26.5031411,18.8698472 L25.490913,19.0183018 Z"></path>
                                        <path d="M29.6692047,19.6137789 C29.5091391,19.6374155 29.2968242,19.5532359 29.1952282,19.4263446 L28.6681729,18.7612017 C28.5686503,18.634725 28.5346467,18.4074817 28.5927016,18.2573684 L28.9049539,17.4690662 C28.9654968,17.3189529 29.1433935,17.1763038 29.3038737,17.1518378 L30.1452546,17.0290933 C30.3057349,17.0054566 30.5172205,17.0896362 30.6192311,17.2169422 L31.1479451,17.8820851 C31.2482971,18.0093912 31.2814713,18.2358051 31.2225871,18.3859184 L30.9057734,19.1746353 C30.8452305,19.3243339 30.6669191,19.466983 30.5064388,19.4910343 L29.6692047,19.6137789 Z"></path>
                                        <path d="M33.5617836,19.3819741 C33.401718,19.4060254 33.1902324,19.3214312 33.0886364,19.1949545 L32.8219987,18.8582362 C32.7216467,18.7313449 32.6884725,18.5045162 32.7461127,18.3544029 L32.9045195,17.9575564 C32.9638184,17.8078578 33.1417151,17.664794 33.3030247,17.6407427 L33.7268253,17.5777117 C33.8868908,17.5536604 34.0987911,17.6382547 34.2012165,17.7647314 L34.4682688,18.1014496 C34.5682062,18.2283409 34.6013804,18.4547549 34.5424961,18.6044535 L34.3836746,19.0029587 C34.3235464,19.1526574 34.1444056,19.2953065 33.9843401,19.3193578 L33.5617836,19.3819741 Z"></path>
                                        <path d="M34.0054886,23.1775184 C33.8450084,23.201155 33.6331081,23.1169754 33.5315121,22.9904988 L33.2611423,22.6517071 C33.1603756,22.5244011 33.1267867,22.2975725 33.185671,22.1478738 L33.3449072,21.7452219 C33.4046207,21.5946939 33.5833468,21.4520448 33.743827,21.4275788 L34.1746771,21.3645478 C34.3347427,21.3400818 34.5470576,21.4250907 34.6482389,21.5511527 L34.91695,21.8899444 C35.0168873,22.0168357 35.0508909,22.244079 34.991592,22.3937777 L34.8319411,22.797259 C34.7722275,22.9469576 34.5930868,23.0904361 34.4330212,23.1140727 L34.0054886,23.1775184 Z"></path>
                                        <path d="M30.9414357,23.3110446 C30.7817848,23.3346812 30.5690552,23.2505016 30.4682885,23.124025 L30.0449026,22.5911642 C29.9445507,22.4646875 29.9113764,22.2382736 29.9702607,22.0881603 L30.2207259,21.4578503 C30.2808542,21.3081516 30.4599949,21.1659172 30.6200605,21.1418659 L31.2897649,21.044002 C31.4498304,21.0203654 31.6621454,21.1045449 31.7633267,21.2310216 L32.1850539,21.7622236 C32.2854058,21.8895297 32.3194094,22.1163583 32.2605252,22.266057 L32.0108892,22.8951229 C31.950761,23.0452362 31.7720349,23.1878853 31.6123841,23.2115219 L30.9414357,23.3110446 Z"></path>
                                        <path d="M27.231315,23.3214115 C27.0708347,23.3450481 26.8589345,23.2608686 26.7573384,23.1343919 L26.2132814,22.4522472 C26.1125147,22.3245265 26.0801699,22.0981125 26.1382247,21.9479992 L26.4587706,21.1426953 C26.5193135,20.992582 26.6980395,20.8503475 26.8581051,20.8250522 L27.7189758,20.6960875 C27.8786267,20.6716215 28.0913564,20.7566304 28.192123,20.8831071 L28.7320333,21.5656664 C28.8311412,21.6938018 28.8643154,21.9198011 28.8062606,22.0703291 L28.4865441,22.8768771 C28.4264159,23.0257464 28.2485192,23.1696395 28.0880389,23.1945202 L27.231315,23.3214115 Z"></path>
                                        <path d="M22.7693837,22.380508 C22.6097329,22.4041446 22.3970032,22.319965 22.2962366,22.1934884 L21.6215561,21.3446433 C21.5212041,21.2181666 21.4880299,20.9913379 21.5464994,20.8416393 L21.9450046,19.8372901 C22.0055476,19.6875915 22.1842736,19.5449424 22.3443392,19.5213058 L23.41089,19.3641429 C23.5709556,19.339677 23.7828558,19.4246859 23.8852812,19.5511626 L24.5558149,20.3975196 C24.6561669,20.5239963 24.6897558,20.7508249 24.6321156,20.9005235 L24.2352691,21.9048727 C24.1747262,22.0554007 23.9964148,22.1980498 23.8367639,22.2216864 L22.7693837,22.380508 Z"></path>
                                        <path d="M18.1175302,21.3114691 C17.9578793,21.3351057 17.745979,21.2509261 17.644383,21.1244495 L16.8722533,20.1482983 C16.7719013,20.0209923 16.7387271,19.7941636 16.798026,19.6436357 L17.2558301,18.4883438 C17.3155436,18.3382305 17.495099,18.1955814 17.6547499,18.1711154 L18.8855131,17.9894866 C19.0455787,17.9650206 19.2583083,18.0500296 19.359075,18.1769209 L20.13079,19.1497546 C20.231142,19.2774753 20.2643162,19.5038893 20.205432,19.6540026 L19.7476279,20.8138559 C19.6874996,20.9635545 19.5087736,21.107033 19.3482933,21.1310843 L18.1175302,21.3114691 Z"></path>
                                        <path d="M13.3462494,21.2156785 C13.1861839,21.2393152 12.9734542,21.1551356 12.8726876,21.0282442 L11.9890096,19.9140055 C11.8886576,19.7858701 11.8550687,19.5598708 11.9143676,19.4101722 L12.436032,18.0894239 C12.4957456,17.9393106 12.6748864,17.7966615 12.8349519,17.7721956 L14.2390503,17.5640274 C14.3991159,17.5399761 14.6122602,17.6245703 14.7130269,17.751047 L15.5987783,18.8632124 C15.6995449,18.9913478 15.7331338,19.2173471 15.6738349,19.367875 L15.1496824,20.6898673 C15.0903835,20.8395659 14.9108281,20.982215 14.7507625,21.0058517 L13.3462494,21.2156785 Z"></path>
                                        <path d="M9.73357797,19.1941251 C9.57392709,19.2185911 9.36078279,19.1339969 9.2604308,19.0075202 L8.76281765,18.3792836 C8.66246567,18.2528069 8.62929146,18.0251489 8.68859036,17.8754503 L8.98301147,17.1327627 C9.04272505,16.9814053 9.22228046,16.8391709 9.38193135,16.815949 L10.1743803,16.6998392 C10.3344458,16.6766173 10.5471755,16.7607968 10.6475275,16.8876882 L11.1422379,17.5113633 C11.2425898,17.6386694 11.2757641,17.865498 11.2164652,18.0151966 L10.922044,18.7578843 C10.8623305,18.9084122 10.6827751,19.0510613 10.5231242,19.075942 L9.73357797,19.1941251 Z"></path>
                                        <path d="M4.35230645,15.7780109 C4.19224089,15.8016475 3.97951127,15.7174679 3.87874461,15.5909913 L3.49309442,15.1041597 C3.39274243,14.977683 3.35915354,14.7508544 3.41845244,14.6007411 L3.64569578,14.0264126 C3.70540936,13.8762993 3.88455009,13.7336502 4.04461566,13.7100136 L4.65709451,13.6196138 C4.81716007,13.5959772 5.02988969,13.6801568 5.13065635,13.8066334 L5.51672122,14.2930503 C5.6170732,14.419527 5.65024741,14.6463556 5.59053384,14.7960542 L5.36163179,15.3712121 C5.30191821,15.5213254 5.12194812,15.6635598 4.96229724,15.6871965 L4.35230645,15.7780109 Z"></path>
                                        <path d="M1.32723319,15.8020622 C1.16758231,15.8261135 0.954438007,15.7419339 0.854086022,15.6154572 L0.6450885,15.3517223 C0.544736515,15.2252456 0.511147628,14.9984169 0.570861206,14.8483036 L0.694435137,14.5377101 C0.754148715,14.3875968 0.933704126,14.2449477 1.09335501,14.2208964 L1.42302372,14.1715497 C1.58267461,14.1474984 1.7958189,14.231678 1.89617089,14.3581547 L2.10516841,14.6218896 C2.2055204,14.7483663 2.23910928,14.975195 2.17939571,15.1253083 L2.05582177,15.4359018 C1.9961082,15.5860151 1.81655279,15.7286642 1.6569019,15.7527155 L1.32723319,15.8020622 Z"></path>
                                        <path d="M6.27267853,19.9102734 C6.11261296,19.93391 5.89988334,19.8497304 5.79953136,19.7232538 L5.20156623,18.9685405 C5.10121424,18.8412345 5.06762535,18.6144058 5.12733893,18.4647072 L5.48230298,17.5665155 C5.54201655,17.4172315 5.72115729,17.2733384 5.88122285,17.2492871 L6.83373735,17.1074673 C6.99380291,17.0838307 7.20694721,17.1680103 7.3072992,17.2940723 L7.91065514,18.0521029 C8.01100712,18.1789943 8.04459601,18.4054083 7.98488243,18.5551069 L7.62743032,19.454128 C7.56771674,19.6038266 7.38816133,19.7464757 7.22809577,19.7701123 L6.27267853,19.9102734 Z"></path>
                                        <path d="M9.4938943,23.4843798 C9.33382874,23.5080164 9.12109912,23.4238369 9.02033246,23.2973602 L8.26230176,22.343187 C8.1615351,22.2167103 8.12836089,21.9898817 8.18765979,21.8397684 L8.63758501,20.7052104 C8.69729859,20.5550971 8.876854,20.412448 9.03650489,20.3888114 L10.2398993,20.2105 C10.3999649,20.186034 10.6126945,20.2710429 10.7134612,20.3975196 L11.47398,21.3550102 C11.5747466,21.4814869 11.6079208,21.7083156 11.5482072,21.8580142 L11.0986967,22.9909134 C11.0389831,23.139368 10.8594277,23.2832612 10.6993622,23.3068978 L9.4938943,23.4843798 Z"></path>
                                        <path d="M15.9118599,24.0723927 C15.7517943,24.0960293 15.5390647,24.0118497 15.438298,23.8853731 L14.8726778,23.1725422 C14.7723258,23.0460656 14.7391516,22.8192369 14.7988651,22.6695383 L15.1343393,21.8264987 C15.1940529,21.6768001 15.374023,21.534151 15.5336739,21.5105143 L16.4318656,21.3778175 C16.5919312,21.3541809 16.8046608,21.4383604 16.9054275,21.5652518 L17.468145,22.2747652 C17.568497,22.4016565 17.6020859,22.6284852 17.5423723,22.7781838 L17.2060687,23.6249555 C17.1463552,23.7750688 16.9667998,23.9173033 16.8071489,23.9413546 L15.9118599,24.0723927 Z"></path>
                                        <path d="M12.5027951,26.292162 C12.3427296,26.3162133 12.13,26.2316191 12.0292333,26.1051424 L11.3446005,25.2426129 C11.2442486,25.1161363 11.2106597,24.8893076 11.2699586,24.7387796 L11.6742692,23.7157699 C11.7339828,23.5660713 11.9131236,23.4234222 12.0731891,23.3985415 L13.1617179,23.2368173 C13.3217834,23.2123513 13.5345131,23.2973602 13.6348651,23.4238369 L14.3199125,24.288025 C14.4202645,24.4157458 14.4534387,24.6421597 14.3937251,24.7918584 L13.9877557,25.8156974 C13.9280421,25.9645667 13.7484867,26.1076305 13.5884212,26.1325111 L12.5027951,26.292162 Z"></path>
                                        <path d="M19.7961452,25.4520251 C19.6356649,25.4760764 19.42335,25.3914822 19.3213393,25.2650055 L18.7188127,24.5036574 C18.6184607,24.3767661 18.5852865,24.1499374 18.6437561,23.9998241 L18.9995495,23.0987296 C19.0600924,22.949031 19.2392331,22.8063819 19.3997134,22.7819159 L20.358448,22.6384375 C20.519343,22.6131421 20.7312432,22.6989804 20.8328392,22.8254571 L21.4361952,23.5868052 C21.5365472,23.7149406 21.5705507,23.9409399 21.5116665,24.0906385 L21.1562878,24.9921477 C21.0965742,25.1414316 20.9174335,25.2853247 20.7577826,25.3089614 L19.7961452,25.4520251 Z"></path>
                                        <path d="M24.1842638,26.7002048 C24.0246129,26.7242561 23.8118833,26.6396618 23.7098726,26.5135999 L23.0621461,25.700417 C22.9626235,25.5735257 22.9290346,25.346697 22.9875042,25.1965837 L23.3690076,24.2337023 C23.4295505,24.0831743 23.6078619,23.9413546 23.7683421,23.9173033 L24.7934252,23.76719 C24.9534908,23.7431386 25.1658057,23.8277329 25.2682311,23.9542096 L25.9147135,24.766563 C26.0150655,24.8930397 26.0490691,25.1198684 25.9897702,25.269567 L25.6082667,26.2307897 C25.5477238,26.3804883 25.3689978,26.5231374 25.2089322,26.5476034 L24.1842638,26.7002048 Z"></path>
                                        <path d="M28.5516485,27.1675465 C28.391583,27.1915978 28.1800974,27.1070035 28.0785013,26.9809415 L27.6555302,26.4464221 C27.5551782,26.3195307 27.522004,26.0927021 27.5800588,25.9425888 L27.8305241,25.3110347 C27.8906524,25.1621655 28.0693784,25.0199311 28.2298587,24.9950504 L28.9020511,24.8963571 C29.0621167,24.8727205 29.2736023,24.9569001 29.375613,25.0833767 L29.7989988,25.6162375 C29.8993508,25.7427141 29.932525,25.9703722 29.8744701,26.1192414 L29.6240049,26.7507955 C29.5634619,26.9004941 29.3843212,27.0431432 29.2238409,27.0676092 L28.5516485,27.1675465 Z"></path>
                                        <path d="M31.8997556,26.6433939 C31.7396901,26.6674452 31.5273751,26.582851 31.4266085,26.4563743 L31.1520919,26.1080451 C31.0517399,25.9811538 31.0185657,25.7543251 31.0774499,25.6037971 L31.2404182,25.1911929 C31.2997171,25.0410796 31.4788579,24.8984305 31.6389234,24.8747939 L32.0801404,24.8092748 C32.240206,24.7856382 32.4516916,24.8698178 32.5532876,24.9971238 L32.8278042,25.345453 C32.9281562,25.472759 32.9613304,25.6995877 32.9020315,25.849701 L32.7394778,26.2598171 C32.6801789,26.4103451 32.5010382,26.5529942 32.3409726,26.5770455 L31.8997556,26.6433939 Z"></path>
                                        <path d="M25.213079,30.7072347 C25.0530134,30.7308713 24.8406985,30.6466917 24.7399318,30.5193857 L24.1357465,29.7538908 C24.0353945,29.6265848 24.0022203,29.3997561 24.0611045,29.2492281 L24.4160686,28.3460603 C24.4766115,28.1963616 24.6545082,28.0537125 24.8145738,28.0288319 L25.7807726,27.8861828 C25.9416676,27.8613021 26.1527385,27.9467257 26.2551638,28.0727877 L26.8610078,28.8374533 C26.9613598,28.9655886 26.9937047,29.1915879 26.9352351,29.3408719 L26.5761243,30.2481865 C26.5159961,30.3966411 26.3368553,30.5405343 26.1767898,30.5641709 L25.213079,30.7072347 Z"></path>
                                        <path d="M28.9621794,29.8202392 C28.8021138,29.8442905 28.5897989,29.7596963 28.4890322,29.6332196 L28.444247,29.5747501 C28.3443097,29.4466147 28.3111355,29.2206154 28.3691904,29.0700874 L28.3949004,29.0029096 C28.4533699,28.8523816 28.6312666,28.7097325 28.7925762,28.6844372 L28.8697063,28.6740703 C29.0297718,28.6491896 29.2420868,28.7346132 29.3420241,28.8619192 L29.3872239,28.9195594 C29.4867466,29.0468655 29.5190914,29.2736941 29.4602072,29.4238074 L29.4328385,29.4930586 C29.3727102,29.6427572 29.1931548,29.7854063 29.0330892,29.8098723 L28.9621794,29.8202392 Z"></path>
                                        <path d="M22.5574835,33.4150795 C22.3974179,33.4387162 22.1859323,33.3541219 22.0839216,33.2272306 L21.6460221,32.6757093 C21.5460847,32.548818 21.5124959,32.3219893 21.5713801,32.171876 L21.831383,31.515856 C21.8915112,31.3657427 22.0694079,31.2230936 22.2307175,31.1986276 L22.9282053,31.0957876 C23.0882708,31.0704923 23.3005858,31.1563305 23.4021818,31.2819778 L23.8425694,31.8368165 C23.9420921,31.9637079 23.9752663,32.1901218 23.916382,32.3398205 L23.6547205,32.9974992 C23.5941775,33.1471978 23.4150368,33.2890175 23.2549712,33.3130688 L22.5574835,33.4150795 Z"></path>
                                        <path d="M20.7291698,29.8156778 C20.5695189,29.8401437 20.357204,29.7551348 20.2551933,29.6278288 L19.5046268,28.6778024 C19.4042748,28.5504963 19.3711006,28.3236677 19.4295702,28.1739691 L19.8765926,27.0468753 C19.9371356,26.896762 20.1150323,26.7541129 20.2750978,26.7300616 L21.4731015,26.5521649 C21.6335817,26.5272842 21.8446526,26.6127078 21.9466633,26.7391845 L22.6980592,27.6908696 C22.7984112,27.817761 22.8315854,28.0445896 22.7735305,28.1947029 L22.3314842,29.3209674 C22.2713559,29.4710807 22.0926299,29.6137298 21.932979,29.6373664 L20.7291698,29.8156778 Z"></path>
                                        <path d="M16.4965553,28.0213677 C16.3364898,28.0458337 16.1237601,27.9608248 16.0229935,27.8351774 L15.4577879,27.123176 C15.3574359,26.9966993 15.323847,26.7690413 15.3827312,26.6193426 L15.7169614,25.7721563 C15.7762603,25.6224576 15.955401,25.4798085 16.1154666,25.4553426 L17.014073,25.3243044 C17.1741386,25.2998384 17.3868682,25.3848474 17.4876348,25.5121534 L18.0524258,26.2241549 C18.1527778,26.3514609 18.185952,26.5782896 18.1270677,26.7284029 L17.7940816,27.5710278 C17.7347827,27.7215558 17.5552273,27.8642049 17.3955764,27.8882562 L16.4965553,28.0213677 Z"></path>
                                        <path d="M12.6769597,30.1258566 C12.5168942,30.1494933 12.3041646,30.0653137 12.2033979,29.938837 L11.5565008,29.1231661 C11.4561488,28.9962748 11.4225599,28.7698608 11.4822735,28.6201622 L11.866265,27.653134 C11.9259786,27.5034353 12.105534,27.3607862 12.2655995,27.3367349 L13.2948294,27.1837189 C13.454895,27.1596676 13.6676246,27.2442618 13.7679766,27.3707385 L14.4123856,28.1864094 C14.5127376,28.3133007 14.5459118,28.5401294 14.4866129,28.6906574 L14.1042801,29.6585149 C14.0449812,29.8086282 13.8654258,29.9508627 13.7057749,29.9753287 L12.6769597,30.1258566 Z"></path>
                                        <path d="M17.2255586,31.7194627 C17.065493,31.743514 16.8527634,31.6589198 16.7519967,31.5324431 L16.257701,30.9095973 C16.157349,30.7831207 16.1237601,30.556292 16.1834737,30.4065934 L16.4774802,29.6663938 C16.5371937,29.5162805 16.7167491,29.3740461 16.8768147,29.3504095 L17.6613848,29.2347144 C17.8214503,29.2110778 18.0337653,29.2952573 18.1353613,29.421734 L18.6292423,30.0445798 C18.7295943,30.1710565 18.7631832,30.3978851 18.7047137,30.5479984 L18.4140247,31.2877833 C18.3543111,31.4383113 18.1764144,31.5801311 18.0155195,31.6041824 L17.2255586,31.7194627 Z"></path>
                                        <path d="M19.7339435,34.0333639 C19.5734633,34.0578299 19.361563,33.9728209 19.259967,33.8471736 L19.0161366,33.5403122 C18.9157846,33.4138355 18.881781,33.1870068 18.9394212,33.0364789 L19.0841437,32.6703185 C19.1438573,32.5197905 19.3213393,32.3771414 19.4826489,32.3535048 L19.8716165,32.2937912 C20.0325114,32.2689106 20.2435823,32.3543342 20.3460077,32.4812255 L20.5906675,32.7889163 C20.6910195,32.9170517 20.7241937,33.143051 20.6648948,33.2939937 L20.5201723,33.6584953 C20.4596294,33.8077792 20.2804886,33.9512577 20.1208378,33.976553 L19.7339435,34.0333639 Z"></path>
                                        <path d="M16.9153797,34.076905 C16.7557288,34.1017857 16.5425845,34.0171914 16.4422326,33.8911294 L16.3999354,33.837636 C16.2995835,33.7107447 16.2659946,33.483916 16.3257081,33.3338027 L16.3510035,33.2716011 C16.4107171,33.1223171 16.5902725,32.978424 16.7499234,32.953958 L16.8191745,32.9435911 C16.9788254,32.9195398 17.191555,33.004134 17.291907,33.1306107 L17.3329601,33.1824454 C17.4328974,33.3097514 17.4660716,33.5365801 17.406358,33.6862787 L17.3810627,33.7501391 C17.3213491,33.8998377 17.1417937,34.0429015 16.9821428,34.0677821 L16.9153797,34.076905 Z"></path>
                                        <path d="M13.6344504,33.78746 C13.4747995,33.8110967 13.2620699,33.7269171 13.1617179,33.6004404 L12.5960976,32.8847069 C12.4957456,32.7578155 12.4625714,32.5309868 12.5218703,32.3808735 L12.8552711,31.5378339 C12.9149847,31.3877206 13.0941254,31.2450715 13.254191,31.2210202 L14.1527974,31.087494 C14.312863,31.0634427 14.5255926,31.148037 14.6263592,31.274099 L15.1915648,31.9869298 C15.2919168,32.1134065 15.3255057,32.3402351 15.2662068,32.4907631 L14.9323913,33.3362908 C14.8730924,33.4864041 14.693537,33.6290532 14.5338861,33.6531045 L13.6344504,33.78746 Z"></path>
                                        <path d="M9.20237593,31.8766256 C9.04272505,31.9010915 8.82999543,31.8164973 8.72964344,31.6900206 L8.27018064,31.1090573 C8.16982865,30.9817512 8.13665444,30.7549226 8.19595334,30.6048093 L8.46673783,29.9201765 C8.52603673,29.7708926 8.70559214,29.6278288 8.86524303,29.6037775 L9.59756371,29.4959613 C9.75762927,29.47191 9.97035889,29.5569189 10.0711256,29.6833956 L10.5301737,30.2618709 C10.6305257,30.3883476 10.6641146,30.6151762 10.6048157,30.7657042 L10.3336165,31.4511663 C10.2743176,31.6012796 10.0947622,31.7439287 9.9351113,31.7683947 L9.20237593,31.8766256 Z"></path>
                                        <path d="M8.63426759,27.4404043 C8.47420203,27.4644556 8.26147241,27.3798614 8.16070575,27.2537994 L7.55278835,26.4891339 C7.45202169,26.3626572 7.41884748,26.1358285 7.47814638,25.9857152 L7.83808655,25.0788153 C7.89780013,24.9291167 8.07735554,24.7864675 8.23700643,24.7615869 L9.20030255,24.6176938 C9.36036811,24.5940571 9.57309773,24.6782367 9.67344971,24.8055427 L10.277635,25.5693789 C10.377987,25.6966849 10.4115759,25.9239283 10.352277,26.0736269 L9.99399552,26.9805269 C9.93469662,27.1298108 9.75514121,27.2737039 9.59549032,27.2973406 L8.63426759,27.4404043 Z"></path>
                                        <path d="M6.26728772,29.205687 C6.10722215,29.2293236 5.89449253,29.145144 5.79414055,29.0186674 L5.41968665,28.5459349 C5.31933467,28.4190435 5.28616046,28.1922149 5.34545936,28.0421016 L5.56689721,27.4835308 C5.62661079,27.3338322 5.8061662,27.1911831 5.96581708,27.1683758 L6.55922076,27.0817082 C6.71928633,27.0572422 6.93201595,27.1418365 7.03278261,27.2687278 L7.40474844,27.7385576 C7.50510042,27.8658636 7.53910399,28.0926922 7.47980509,28.2423909 L7.26002595,28.8013763 C7.20072705,28.9519043 7.02158631,29.0945534 6.86193543,29.11819 L6.26728772,29.205687 Z"></path>
                                        <path d="M3.5416117,27.5361949 C3.38154614,27.5598315 3.16923119,27.4752373 3.06887921,27.3475166 L2.86195507,27.0850256 C2.76160309,26.9568902 2.72884356,26.7308909 2.78814246,26.5811923 L2.91130171,26.2701841 C2.97101529,26.1204855 3.1505707,25.9778364 3.31022159,25.9529557 L3.64030497,25.9036091 C3.80037054,25.8787284 4.01310016,25.964152 4.11303746,26.091458 L4.3199616,26.3531196 C4.41989891,26.4816697 4.45390247,26.7072543 4.39460357,26.8590263 L4.27227367,27.1716932 C4.21297477,27.3209772 4.03424872,27.464041 3.87418315,27.4876776 L3.5416117,27.5361949 Z"></path>
                                        <path d="M5.69627663,24.1943079 C5.53621107,24.2183592 5.32348145,24.133765 5.22312946,24.007703 L4.63553127,23.2633566 C4.53517928,23.1364653 4.50200507,22.9092219 4.56130397,22.7595233 L4.91087721,21.8779187 C4.97017611,21.7278054 5.14973152,21.585571 5.30979708,21.5615197 L6.24613916,21.4242614 C6.40620472,21.4002101 6.61893434,21.485219 6.719701,21.6116957 L7.30895791,22.3535539 C7.40972457,22.4800306 7.44289878,22.7068593 7.38359988,22.8565579 L7.03444132,23.7377478 C6.97472774,23.8882758 6.79517233,24.0309249 6.63552145,24.0549762 L5.69627663,24.1943079 Z"></path>
                                        <path d="M3.26419237,19.9504971 C3.10412681,19.9745484 2.89139719,19.8899542 2.79063052,19.7634775 L2.47879295,19.3703631 C2.37844097,19.2434718 2.34485208,19.0166431 2.40456566,18.8661151 L2.59034123,18.3979441 C2.65005481,18.2482455 2.82961022,18.1055964 2.9892611,18.0819597 L3.48770361,18.0081471 C3.64776917,17.9836811 3.86049879,18.0686901 3.9604361,18.1964108 L4.27102964,18.5878664 C4.37096695,18.7164165 4.40455583,18.9424158 4.34525693,19.0933585 L4.16155475,19.5582121 C4.10225585,19.7070813 3.92270043,19.8505598 3.76304955,19.8750258 L3.26419237,19.9504971 Z"></path>
                                        <path d="M0.756222103,20.3129253 C0.596156541,20.337806 0.38342692,20.2523824 0.283074935,20.1259057 L0.103519524,19.8982477 C0.00316753925,19.7713564 -0.0300066706,19.5449424 0.0297069071,19.3952438 L0.135864379,19.127362 C0.195577956,18.9772487 0.375548045,18.8345996 0.53519893,18.8101336 L0.822155845,18.7670072 C0.98180673,18.7421265 1.19453635,18.8275501 1.29488834,18.9536121 L1.47444375,19.1812701 C1.57479573,19.3094055 1.60838462,19.5354048 1.54908572,19.6851034 L1.44334293,19.9529852 C1.38404402,20.1026838 1.20490329,20.2453329 1.04483773,20.2702136 L0.756222103,20.3129253 Z"></path>
                                        <path d="M2.45100955,23.9110831 C2.29094399,23.9355491 2.07779969,23.8509548 1.9774477,23.7248928 L1.67639175,23.3467068 C1.57603976,23.2202302 1.54245088,22.9934015 1.60257913,22.8437029 L1.78213454,22.3941923 C1.8422628,22.2444937 2.02181821,22.1018446 2.18146909,22.0773786 L2.6558603,22.0068834 C2.81551118,21.9815881 3.02865548,22.0674264 3.12900746,22.1930737 L3.4304781,22.5737478 C3.53083008,22.7002244 3.56441897,22.9262237 3.50470539,23.0767517 L3.32680869,23.5237742 C3.26709511,23.6730581 3.0875397,23.8161219 2.92747414,23.8405879 L2.45100955,23.9110831 Z"></path>
                                    </g>
                                </g>
                            </g>
                        </g>
                    </g>
                </g>
            </g>
        </g>
    </g>
</svg>